# Blender v2.76 (sub 0) OBJ File: ''
# www.blender.org
mtllib freezerverti.mtl
o freezer
v -1.177175 0.000001 1.079077
v 1.177177 0.000001 1.079077
v -1.177175 0.000001 -1.079079
v 1.177177 0.000001 -1.079079
v -1.177175 7.063055 1.059176
v 1.177177 7.063055 1.098978
v -1.177175 7.063055 -1.079079
v 1.177177 7.063055 -1.079079
v -1.177175 0.317960 1.079077
v 1.177177 0.317960 1.079077
v 1.177177 0.337861 -1.079079
v -1.177175 0.337861 -1.079079
v -1.177175 3.235123 1.059175
v 1.177177 3.235123 1.098978
v 1.177177 3.235123 -1.079079
v -1.177175 3.235123 -1.079079
v 1.177177 7.063055 1.199642
v -1.177175 7.063055 1.199642
v -1.177175 3.235123 1.199642
v -1.177175 0.337861 1.199642
v 1.177177 0.337861 1.199642
v 1.177177 3.235123 1.199642
v -1.070732 0.384163 1.313116
v 1.070734 0.384163 1.313116
v 1.070734 3.188821 1.313116
v -1.070732 3.188821 1.313116
v -1.070732 3.281425 1.313116
v 1.070734 3.281425 1.313116
v 1.070734 7.016753 1.313116
v -1.070732 7.016753 1.313116
v -1.177175 7.063055 1.098978
v 1.177177 7.063055 1.059176
v -1.157274 0.337861 1.079077
v -1.177175 0.337861 1.098978
v -1.177175 0.337861 1.059175
v 1.177177 0.337861 1.059175
v 1.177177 0.337861 1.098978
v 1.157276 0.337861 1.079077
v -1.177175 3.235123 1.098978
v 1.177177 3.235123 1.059175
v 1.177177 7.047294 1.098978
v 1.177177 7.047294 1.059176
v -1.177175 7.047294 1.059176
v -1.177175 7.047294 1.098978
v 1.161416 0.337861 1.098978
v 1.161416 0.337861 1.059175
v 1.161416 3.235123 1.059175
v 1.161416 3.235123 1.098978
v -1.161414 3.235123 1.098978
v -1.161414 3.235123 1.059175
v -1.161414 0.337861 1.059175
v -1.161414 0.337861 1.098978
v 1.161416 3.235123 1.098978
v 1.161416 3.235123 1.059175
v 1.161416 7.063055 1.059176
v 1.161416 7.063055 1.098978
v -1.161414 7.063055 1.098978
v -1.161414 7.063055 1.059176
v -1.161414 3.235123 1.059175
v -1.161414 3.235123 1.098978
v 1.177177 0.000001 1.079077
v -1.177175 0.000001 1.079077
v 1.177177 0.000001 1.079077
v -1.177175 0.000001 1.079077
v 1.177177 0.000001 -1.079079
v 1.177177 0.317960 1.079077
v 1.177177 0.317960 1.079077
v 1.177177 7.063055 1.059176
v 1.177177 0.000001 -1.079079
v -1.177175 0.000001 -1.079079
v 1.177177 0.337861 -1.079079
v 1.177177 0.000001 -1.079079
v 1.177177 0.337861 -1.079079
v 1.177177 3.235123 -1.079079
v 1.177177 0.337861 -1.079079
v 1.177177 3.235123 -1.079079
v -1.177175 7.063055 -1.079079
v -1.177175 7.063055 -1.079079
v 1.177177 7.063055 -1.079079
v 1.177177 3.235123 -1.079079
v -1.177175 0.000001 1.079077
v -1.177175 0.000001 -1.079079
v -1.177175 0.000001 1.079077
v -1.177175 0.000001 -1.079079
v -1.177175 0.337861 -1.079079
v -1.177175 0.337861 -1.079079
v -1.177175 0.337861 1.059175
v -1.177175 3.235123 -1.079079
v -1.177175 0.337861 -1.079079
v -1.177175 3.235123 -1.079079
v -1.177175 7.063055 1.059176
v -1.177175 7.063055 1.059176
v -1.177175 3.235123 -1.079079
v -1.177175 7.063055 1.098978
v -1.177175 7.063055 1.098978
v -1.157274 0.337861 1.079077
v 1.157276 0.337861 1.079077
v -1.157274 0.337861 1.079077
v -1.157274 0.337861 1.079077
v -1.177175 0.337861 1.098978
v -1.157274 0.337861 1.079077
v 1.177177 0.337861 1.098978
v 1.177177 0.337861 1.098978
v 1.177177 7.063055 1.098978
v -1.177175 0.317960 1.079077
v -1.157274 0.337861 1.079077
v -1.177175 0.337861 1.059175
v -1.177175 0.317960 1.079077
v 1.177177 0.317960 1.079077
v 1.157276 0.337861 1.079077
v 1.177177 0.317960 1.079077
v 1.177177 7.063055 1.098978
v 1.177177 7.063055 1.098978
v 1.177177 7.063055 1.098978
v -1.177175 0.337861 1.059175
v -1.177175 0.337861 1.059175
v -1.177175 0.337861 1.059175
v 1.177177 7.063055 1.098978
v 1.177177 7.063055 1.098978
v 1.177177 7.063055 1.098978
vt 1.000000 0.000000
vt 1.000000 1.000000
vt 0.000000 1.000000
vt 0.000000 0.000000
vt 0.000000 0.009221
vt 1.000000 0.009221
vt 0.000000 0.333333
vt 1.000000 0.333333
vt 1.000000 0.666667
vt 0.000000 0.666667
vt 0.009221 0.333333
vt 0.000000 0.313699
vt 0.009221 0.666667
vt 0.009221 1.000000
vt 0.990779 0.333333
vt 0.990779 0.666667
vt 0.990779 1.000000
vt 1.000000 0.088388
vt 0.000000 0.088388
vt 0.911612 1.000000
vt 0.911612 0.666667
vt 0.911612 0.333333
vt 0.008453 0.333333
vt 0.991547 0.333333
vt 0.088388 0.333333
vt 0.088388 0.666667
vt 0.088388 1.000000
vt 1.000000 0.313699
vt 0.999500 0.000500
vt 0.999500 0.045472
vt 0.991056 0.048287
vt 0.000499 0.000500
vt 0.008944 0.048287
vt 0.000499 0.045472
vt 0.000499 0.048287
vn 0.000000 -1.000000 -0.000000
vn 0.000000 1.000000 -0.000000
vn -0.000000 0.000000 1.000000
vn 1.000000 -0.000000 0.000000
vn 0.000000 0.000000 -1.000000
vn -1.000000 -0.000000 0.000000
vn 0.000000 -0.925900 0.377800
vn 0.729300 0.000000 0.684200
vn -0.000000 0.925900 0.377800
vn -0.729300 -0.000000 0.684200
vn 0.577400 -0.577300 0.577400
vn -0.577400 -0.577300 0.577400
usemtl woodmat
s off
f 1/1/1 3/2/1 4/3/1
f 1/1/1 4/3/1 2/4/1
f 5/5/2 32/6/2 8/2/2
f 8/2/2 7/3/2 5/5/2
f 23/7/3 24/8/3 25/9/3
f 25/9/3 26/10/3 23/7/3
f 27/10/3 28/9/3 29/2/3
f 29/2/3 30/3/3 27/10/3
f 2/4/4 65/1/4 11/8/4
f 11/8/4 36/11/4 66/12/4
f 2/4/4 11/8/4 67/12/4
f 36/11/4 11/8/4 15/9/4
f 15/9/4 40/13/4 36/11/4
f 40/13/4 15/9/4 8/2/4
f 8/2/4 68/14/4 40/13/4
f 69/4/5 70/1/5 12/8/5
f 12/8/5 71/7/5 72/4/5
f 73/7/5 12/8/5 16/9/5
f 16/9/5 74/10/5 75/7/5
f 76/10/5 16/9/5 77/2/5
f 78/2/5 79/3/5 80/10/5
f 86/7/6 87/15/6 13/16/6
f 13/16/6 88/10/6 89/7/6
f 90/10/6 13/16/6 91/17/6
f 92/17/6 7/3/6 93/10/6
f 6/18/2 31/19/2 18/3/2
f 18/3/2 17/2/2 6/18/2
f 94/20/6 39/21/6 19/10/6
f 19/10/6 18/3/6 95/20/6
f 39/21/6 34/22/6 20/7/6
f 20/7/6 19/10/6 39/21/6
f 96/23/1 97/24/1 37/8/1
f 98/23/1 37/8/1 21/8/1
f 99/23/1 21/8/1 20/7/1
f 100/7/1 101/23/1 20/7/1
f 102/25/4 14/26/4 22/9/4
f 22/9/4 21/8/4 103/25/4
f 14/26/4 104/27/4 17/2/4
f 17/2/4 22/9/4 14/26/4
f 20/7/7 21/8/7 24/8/7
f 24/8/7 23/7/7 20/7/7
f 21/8/8 22/9/8 25/9/8
f 25/9/8 24/8/8 21/8/8
f 22/9/9 19/10/9 26/10/9
f 26/10/9 25/9/9 22/9/9
f 19/10/10 20/7/10 23/7/10
f 23/7/10 26/10/10 19/10/10
f 19/10/7 22/9/7 28/9/7
f 28/9/7 27/10/7 19/10/7
f 22/9/8 17/2/8 29/2/8
f 29/2/8 28/9/8 22/9/8
f 17/2/9 18/3/9 30/3/9
f 30/3/9 29/2/9 17/2/9
f 18/3/10 19/10/10 27/10/10
f 27/10/10 30/3/10 18/3/10
f 105/12/11 106/23/11 34/22/11
f 34/22/6 107/15/6 108/12/6
f 109/28/4 36/11/4 37/8/4
f 37/8/12 110/24/12 111/28/12
f 41/27/2 42/6/2 43/5/2
f 43/5/2 44/19/2 41/27/2
f 45/8/4 46/11/4 47/13/4
f 47/13/4 48/26/4 45/8/4
f 49/21/6 50/16/6 51/15/6
f 51/15/6 52/22/6 49/21/6
f 53/26/4 54/13/4 55/6/4
f 55/6/4 56/27/4 53/26/4
f 57/19/6 58/5/6 59/16/6
f 59/16/6 60/21/6 57/19/6
f 112/27/6 32/6/6 42/6/6
f 42/6/6 41/27/6 113/27/6
f 32/6/3 5/5/3 43/5/3
f 43/5/3 42/6/3 32/6/3
f 5/5/4 31/19/4 44/19/4
f 44/19/4 43/5/4 5/5/4
f 31/19/5 114/27/5 41/27/5
f 41/27/5 44/19/5 31/19/5
f 37/8/2 36/11/2 46/11/2
f 46/11/2 45/8/2 37/8/2
f 36/11/3 40/13/3 47/13/3
f 47/13/3 46/11/3 36/11/3
f 40/13/1 14/26/1 48/26/1
f 48/26/1 47/13/1 40/13/1
f 14/26/5 37/8/5 45/8/5
f 45/8/5 48/26/5 14/26/5
f 39/21/1 13/16/1 50/16/1
f 50/16/1 49/21/1 39/21/1
f 13/16/3 115/15/3 51/15/3
f 51/15/3 50/16/3 13/16/3
f 116/15/2 34/22/2 52/22/2
f 52/22/2 51/15/2 117/15/2
f 34/22/5 39/21/5 49/21/5
f 49/21/5 52/22/5 34/22/5
f 14/26/2 40/13/2 54/13/2
f 54/13/2 53/26/2 14/26/2
f 40/13/3 32/6/3 55/6/3
f 55/6/3 54/13/3 40/13/3
f 32/6/1 118/27/1 56/27/1
f 56/27/1 55/6/1 32/6/1
f 119/27/5 14/26/5 53/26/5
f 53/26/5 56/27/5 120/27/5
f 31/19/1 5/5/1 58/5/1
f 58/5/1 57/19/1 31/19/1
f 5/5/3 13/16/3 59/16/3
f 59/16/3 58/5/3 5/5/3
f 13/16/2 39/21/2 60/21/2
f 60/21/2 59/16/2 13/16/2
f 39/21/5 31/19/5 57/19/5
f 57/19/5 60/21/5 39/21/5
usemtl metal:_Chrome_(O
f 61/29/3 10/30/3 38/31/3
f 62/32/3 63/29/3 38/31/3
f 38/31/3 33/33/3 9/34/3
f 64/32/3 38/31/3 9/34/3
f 81/32/6 9/34/6 35/35/6
f 82/32/6 83/32/6 35/35/6
f 84/32/6 35/35/6 85/35/6
