# Blender v2.77 (sub 0) OBJ File: ''
# www.blender.org
mtllib cone.mtl
o Cone
v 0.640429 -0.357826 -0.996595
v 0.640429 1.642174 -0.096595
v 0.879744 -0.357826 -0.967537
v 0.664360 1.642174 -0.093689
v 1.105152 -0.357826 -0.882051
v 0.686901 1.642174 -0.085140
v 1.303551 -0.357826 -0.745105
v 0.706741 1.642174 -0.071446
v 1.463413 -0.357826 -0.564659
v 0.722727 1.642174 -0.053401
v 1.575445 -0.357826 -0.351200
v 0.733930 1.642174 -0.032055
v 1.633137 -0.357826 -0.117131
v 0.739699 1.642174 -0.008648
v 1.633137 -0.357826 0.123942
v 0.739699 1.642174 0.015459
v 1.575445 -0.357826 0.358010
v 0.733930 1.642174 0.038866
v 1.463413 -0.357826 0.571470
v 0.722727 1.642174 0.060212
v 1.303551 -0.357826 0.751916
v 0.706741 1.642174 0.078256
v 1.105152 -0.357826 0.888861
v 0.686901 1.642174 0.091951
v 0.879744 -0.357826 0.974347
v 0.664360 1.642174 0.100500
v 0.640428 -0.357826 1.003405
v 0.640429 1.642174 0.103405
v 0.401113 -0.357826 0.974347
v 0.616497 1.642174 0.100499
v 0.175705 -0.357826 0.888861
v 0.593956 1.642174 0.091951
v -0.022695 -0.357826 0.751916
v 0.574116 1.642174 0.078256
v -0.182556 -0.357826 0.571469
v 0.558130 1.642174 0.060212
v -0.294588 -0.357826 0.358009
v 0.546927 1.642174 0.038866
v -0.352280 -0.357826 0.123941
v 0.541158 1.642174 0.015459
v -0.352280 -0.357826 -0.117132
v 0.541158 1.642174 -0.008648
v -0.294587 -0.357826 -0.351201
v 0.546927 1.642174 -0.032055
v -0.182555 -0.357826 -0.564660
v 0.558130 1.642174 -0.053401
v -0.022693 -0.357826 -0.745106
v 0.574116 1.642174 -0.071446
v 0.175707 -0.357826 -0.882051
v 0.593956 1.642174 -0.085140
v 0.401114 -0.357826 -0.967537
v 0.616497 1.642174 -0.093689
vn 0.1101 0.4079 -0.9064
vn 0.3238 0.4079 -0.8537
vn 0.5187 0.4079 -0.7514
vn 0.6834 0.4079 -0.6055
vn 0.8085 0.4079 -0.4243
vn 0.8865 0.4079 -0.2185
vn 0.9130 0.4079 0.0000
vn 0.8865 0.4079 0.2185
vn 0.8085 0.4079 0.4243
vn 0.6834 0.4079 0.6055
vn 0.5187 0.4079 0.7514
vn 0.3238 0.4079 0.8537
vn 0.1101 0.4079 0.9064
vn -0.1101 0.4079 0.9064
vn -0.3238 0.4079 0.8537
vn -0.5187 0.4079 0.7514
vn -0.6834 0.4079 0.6055
vn -0.8085 0.4079 0.4243
vn -0.8865 0.4079 0.2185
vn -0.9130 0.4079 -0.0000
vn -0.8865 0.4079 -0.2185
vn -0.8085 0.4079 -0.4243
vn -0.6834 0.4079 -0.6055
vn -0.5187 0.4079 -0.7514
vn 0.0000 1.0000 0.0000
vn -0.3238 0.4079 -0.8537
vn -0.1101 0.4079 -0.9064
vn 0.0000 -1.0000 -0.0000
usemtl None
s off
f 1//1 2//1 4//1 3//1
f 3//2 4//2 6//2 5//2
f 5//3 6//3 8//3 7//3
f 7//4 8//4 10//4 9//4
f 9//5 10//5 12//5 11//5
f 11//6 12//6 14//6 13//6
f 13//7 14//7 16//7 15//7
f 15//8 16//8 18//8 17//8
f 17//9 18//9 20//9 19//9
f 19//10 20//10 22//10 21//10
f 21//11 22//11 24//11 23//11
f 23//12 24//12 26//12 25//12
f 25//13 26//13 28//13 27//13
f 27//14 28//14 30//14 29//14
f 29//15 30//15 32//15 31//15
f 31//16 32//16 34//16 33//16
f 33//17 34//17 36//17 35//17
f 35//18 36//18 38//18 37//18
f 37//19 38//19 40//19 39//19
f 39//20 40//20 42//20 41//20
f 41//21 42//21 44//21 43//21
f 43//22 44//22 46//22 45//22
f 45//23 46//23 48//23 47//23
f 47//24 48//24 50//24 49//24
f 4//25 2//25 52//25 50//25 48//25 46//25 44//25 42//25 40//25 38//25 36//25 34//25 32//25 30//25 28//25 26//25 24//25 22//25 20//25 18//25 16//25 14//25 12//25 10//25 8//25 6//25
f 49//26 50//26 52//26 51//26
f 51//27 52//27 2//27 1//27
f 1//28 3//28 5//28 7//28 9//28 11//28 13//28 15//28 17//28 19//28 21//28 23//28 25//28 27//28 29//28 31//28 33//28 35//28 37//28 39//28 41//28 43//28 45//28 47//28 49//28 51//28
