# Blender v2.76 (sub 0) OBJ File: ''
# www.blender.org
mtllib smartpanel.mtl
o gira_Info_
v -1.100000 -0.006763 0.633595
v -1.100000 -0.086763 0.633595
v -1.090000 -0.006763 0.643595
v -1.090000 0.003237 0.633595
v -1.090000 -0.096763 0.633595
v -1.090000 -0.086763 0.643595
v -1.097500 -0.006763 0.641095
v -1.090000 0.000737 0.641095
v -1.097500 0.000737 0.633595
v -1.097500 -0.094263 0.633595
v -1.090000 -0.094263 0.641095
v -1.097500 -0.086763 0.641095
v -1.097500 -0.001138 0.639220
v -1.097500 -0.092388 0.639220
v -1.090000 -0.096763 0.458720
v -0.898959 -0.096763 0.458720
v -0.890103 -0.094163 0.449864
v -0.885347 -0.086763 0.445108
v -0.885347 -0.086763 0.410439
v -0.607658 -0.086763 0.410439
v -0.551888 -0.064530 0.361826
v -0.531521 -0.064530 0.368393
v -0.531521 -0.086763 0.410439
v -0.541616 -0.064530 0.367676
v -0.546664 -0.086763 0.410439
v -0.548058 -0.064530 0.365098
v -0.576390 -0.086763 0.410439
v -0.554764 -0.064530 0.357195
v -0.607658 -0.086763 0.384865
v -0.556711 -0.064530 0.349988
v -0.607658 -0.086763 0.361766
v -0.556711 -0.064530 0.341014
v -0.607658 -0.086763 0.343257
v -0.000000 -0.006763 0.643595
v -0.000000 -0.086763 0.643595
v -0.000000 0.000737 0.641095
v -0.000000 -0.094263 0.641095
v -0.000000 -0.086763 0.445108
v -0.000000 -0.086763 0.410439
v -0.000000 -0.064530 0.370076
v 1.090000 0.003237 0.633595
v 0.017058 0.003237 0.631912
v 0.548579 -0.064530 0.368393
v 0.558674 -0.064530 0.367676
v 0.565116 -0.064530 0.365098
v 0.568946 -0.064530 0.361826
v 0.571822 -0.064530 0.357195
v 0.573769 -0.064530 0.349988
v 0.556711 -0.064530 0.342697
v 1.100000 -0.006763 0.633595
v 1.100000 -0.086763 0.633595
v 1.097500 -0.001138 0.639220
v 1.097500 0.000737 0.633595
v 1.097500 -0.092388 0.639220
v 1.097500 -0.086763 0.641095
v 1.090000 0.000737 0.641095
v 1.090000 -0.096763 0.633595
v 1.097500 -0.094263 0.633595
v 1.090000 -0.096763 0.458720
v 1.090000 -0.006763 0.643595
v 1.097500 -0.006763 0.641095
v 1.090000 -0.086763 0.643595
v 1.090000 -0.094263 0.641095
v 0.898959 -0.096763 0.458720
v 0.890103 -0.094163 0.448181
v 0.885347 -0.086763 0.412122
v 0.902405 -0.086763 0.443425
v 0.624716 -0.086763 0.410439
v 0.624716 -0.086763 0.343257
v 0.624716 -0.086763 0.361766
v 0.624716 -0.086763 0.384865
v 0.576390 -0.086763 0.410439
v 0.548579 -0.086763 0.410439
v 0.563722 -0.086763 0.410439
v -0.000000 -0.096763 0.633595
v -0.000000 -0.096763 0.458720
v -0.000000 -0.094163 0.449864
v -1.090000 0.003237 -0.056405
v -1.100000 -0.006763 -0.056405
v -1.100000 -0.086763 -0.056405
v -1.097500 -0.094263 -0.056405
v -1.090000 -0.096763 -0.056405
v -0.898959 -0.096763 -0.056405
v -0.556711 -0.064530 -0.056405
v -0.000000 0.003237 -0.056405
v 1.100000 -0.006763 -0.056405
v 1.100000 -0.086763 -0.056405
v 1.097500 0.000737 -0.056405
v 0.885347 -0.086763 -0.056405
v 0.624716 -0.086763 -0.056405
v -1.100000 -0.006763 -0.746405
v -1.100000 -0.086763 -0.746405
v -1.097500 -0.001138 -0.752030
v -1.097500 0.000737 -0.746405
v -1.097500 -0.092388 -0.752030
v -1.097500 -0.086763 -0.753905
v -1.090000 0.003237 -0.746405
v -1.090000 0.000737 -0.753905
v -0.000000 0.000737 -0.753905
v -0.000000 0.003237 -0.746405
v -1.090000 -0.096763 -0.746405
v -1.097500 -0.094263 -0.746405
v -1.090000 -0.096763 -0.571530
v -1.090000 -0.006763 -0.756405
v -1.097500 -0.006763 -0.753905
v -1.090000 -0.086763 -0.756405
v -1.090000 -0.094263 -0.753905
v -0.000000 -0.006763 -0.756405
v -0.898959 -0.096763 -0.571530
v -0.890103 -0.094163 -0.056405
v -0.890103 -0.094163 -0.562674
v -0.885347 -0.086763 -0.056405
v -0.885347 -0.086763 -0.524931
v -0.885347 -0.086763 -0.557918
v -0.607658 -0.086763 -0.524931
v -0.607658 -0.086763 -0.056405
v -0.607658 -0.086763 -0.457750
v -0.607658 -0.086763 -0.476258
v -0.607658 -0.086763 -0.499358
v -0.576390 -0.086763 -0.524931
v -0.551888 -0.064530 -0.476318
v -0.548058 -0.064530 -0.479590
v -0.556711 -0.064530 -0.455506
v -0.531521 -0.064530 -0.482886
v -0.000000 -0.064530 -0.482886
v -0.000000 -0.086763 -0.524931
v -0.531521 -0.086763 -0.524931
v -0.541616 -0.064530 -0.482168
v -0.546664 -0.086763 -0.524931
v -0.554764 -0.064530 -0.471687
v -0.556711 -0.064530 -0.464480
v -0.000000 -0.086763 -0.756405
v -0.000000 -0.094263 -0.753905
v -0.000000 -0.096763 -0.746405
v -0.000000 -0.096763 -0.571530
v -0.000000 -0.094163 -0.562674
v -0.000000 -0.086763 -0.557918
v 1.100000 -0.006763 -0.746405
v 1.100000 -0.086763 -0.746405
v 1.097500 0.000737 -0.746405
v 1.097500 -0.001138 -0.752030
v 1.097500 -0.086763 -0.753905
v 1.097500 -0.092388 -0.752030
v 1.090000 0.003237 -0.746405
v 1.090000 0.000737 -0.753905
v 1.090000 -0.096763 -0.746405
v 1.090000 -0.096763 -0.571530
v 1.090000 -0.096763 -0.056405
v 1.097500 -0.094263 -0.056405
v 1.097500 -0.094263 -0.746405
v 1.090000 -0.006763 -0.756405
v 1.090000 -0.086763 -0.756405
v 1.097500 -0.006763 -0.753905
v 1.090000 -0.094263 -0.753905
v 0.898959 -0.096763 -0.571530
v 0.898959 -0.096763 -0.056405
v 0.890103 -0.094163 -0.562674
v 0.890103 -0.094163 -0.056405
v 0.885347 -0.086763 -0.557918
v 0.885347 -0.086763 -0.524931
v 0.624716 -0.086763 -0.524931
v 0.624716 -0.086763 -0.499358
v 0.624716 -0.086763 -0.476258
v 0.624716 -0.086763 -0.457750
v 0.593447 -0.086763 -0.524931
v 0.565116 -0.064530 -0.479590
v 0.568946 -0.064530 -0.476318
v 0.573769 -0.064530 -0.455506
v 0.573769 -0.064530 -0.056405
v 0.548579 -0.064530 -0.482886
v 0.548579 -0.086763 -0.524931
v 0.558674 -0.064530 -0.482168
v 0.563722 -0.086763 -0.524931
v 0.571822 -0.064530 -0.471687
v 0.573769 -0.064530 -0.464480
v -0.000000 -0.064530 -0.056405
v -1.097500 0.000737 -0.056405
v 1.090000 0.003237 -0.056405
vt 0.000500 0.500000
vt 0.000500 0.992365
vt 0.001635 0.996379
vt 0.001635 0.992365
vt 0.001635 0.997717
vt 0.005041 0.997717
vt 0.500000 0.997716
vt 0.507746 0.991164
vt 0.005041 0.992365
vt 0.001635 0.500000
vt 0.005041 0.500000
vt 0.005041 0.867579
vt 0.005041 0.999501
vt 0.500000 0.999500
vt 0.091790 0.500000
vt 0.091790 0.867579
vt 0.095812 0.500000
vt 0.095812 0.861259
vt 0.097972 0.500000
vt 0.097972 0.833127
vt 0.097972 0.857866
vt 0.500000 0.992365
vt 0.500000 0.867579
vt 0.500000 0.861259
vt 0.500000 0.857866
vt 0.999500 0.992364
vt 0.999500 0.500000
vt 0.998365 0.992364
vt 0.998365 0.996378
vt 0.998365 0.997716
vt 0.994960 0.997716
vt 0.994960 0.992364
vt 0.994959 0.867579
vt 0.994959 0.500000
vt 0.998365 0.500000
vt 0.994960 0.999500
vt 0.908210 0.500000
vt 0.908210 0.867579
vt 0.904188 0.860058
vt 0.904188 0.500000
vt 0.909774 0.856665
vt 0.902029 0.834327
vt 0.902028 0.500000
vt 0.500000 0.500000
vt 0.000500 0.007636
vt 0.001635 0.007636
vt 0.001635 0.003622
vt 0.001635 0.002284
vt 0.005040 0.002284
vt 0.005040 0.007636
vt 0.500000 0.007635
vt 0.500000 0.002284
vt 0.005040 0.132421
vt 0.005040 0.000500
vt 0.500000 0.000500
vt 0.091790 0.132421
vt 0.095812 0.138741
vt 0.097971 0.142135
vt 0.097971 0.165673
vt 0.500000 0.132421
vt 0.500000 0.138741
vt 0.500000 0.142134
vt 0.999500 0.007635
vt 0.998365 0.003621
vt 0.998365 0.007635
vt 0.998365 0.002283
vt 0.994959 0.002283
vt 0.994959 0.007635
vt 0.994959 0.132421
vt 0.994959 0.000499
vt 0.908210 0.132421
vt 0.904188 0.138741
vt 0.902028 0.165672
vt 0.902028 0.142134
vt 0.224068 0.500000
vt 0.224068 0.785188
vt 0.224068 0.798395
vt 0.224068 0.814878
vt 0.224068 0.833127
vt 0.238267 0.833127
vt 0.249392 0.798438
vt 0.251132 0.800773
vt 0.247202 0.500000
vt 0.247202 0.783587
vt 0.500000 0.804325
vt 0.500000 0.833127
vt 0.258641 0.833127
vt 0.258641 0.803124
vt 0.254057 0.802612
vt 0.251765 0.833127
vt 0.248087 0.795133
vt 0.247202 0.789990
vt 0.783678 0.785187
vt 0.783678 0.500000
vt 0.783678 0.798395
vt 0.783678 0.814878
vt 0.783678 0.833127
vt 0.761734 0.833127
vt 0.756614 0.800772
vt 0.758354 0.798438
vt 0.752798 0.784787
vt 0.760543 0.500000
vt 0.749105 0.803124
vt 0.749105 0.833127
vt 0.753689 0.802612
vt 0.755981 0.833127
vt 0.759659 0.795133
vt 0.760544 0.789990
vt 0.224068 0.213612
vt 0.224068 0.200405
vt 0.224068 0.183921
vt 0.224068 0.165673
vt 0.238266 0.165673
vt 0.251131 0.198027
vt 0.249392 0.200361
vt 0.247202 0.215213
vt 0.500000 0.195675
vt 0.258641 0.195675
vt 0.258641 0.165673
vt 0.500000 0.165672
vt 0.254057 0.196187
vt 0.251765 0.165673
vt 0.248087 0.203666
vt 0.247202 0.208809
vt 0.783678 0.165672
vt 0.783678 0.213612
vt 0.783678 0.200404
vt 0.783678 0.183921
vt 0.769479 0.165672
vt 0.758353 0.200361
vt 0.756614 0.198027
vt 0.760543 0.215212
vt 0.749105 0.165672
vt 0.749105 0.195675
vt 0.753689 0.196187
vt 0.755981 0.165672
vt 0.759659 0.203666
vt 0.760543 0.208809
vn -1.000000 -0.000000 0.000000
vn -0.943500 0.314500 0.104800
vn -0.943500 -0.104800 0.314500
vn -0.000000 0.964900 0.262700
vn 0.000500 0.948700 0.316200
vn -0.316200 -0.948700 0.000000
vn -0.316200 0.000000 0.948700
vn -0.943500 0.104800 0.314500
vn -0.301500 0.301500 0.904500
vn -0.301500 0.904500 0.301500
vn -0.943500 -0.314500 0.104800
vn -0.301500 -0.904500 0.301500
vn -0.301500 -0.301500 0.904500
vn -0.000000 0.316200 0.948700
vn -0.948700 -0.316200 0.000000
vn -0.948700 0.000000 0.316200
vn -0.000000 -1.000000 0.000000
vn 0.281700 -0.959500 0.000000
vn 0.841200 -0.540700 0.000000
vn 0.000000 0.000000 1.000000
vn -0.000000 -0.948700 0.316200
vn 0.000000 -0.316200 0.948700
vn 0.000000 -0.959500 -0.281700
vn -0.000000 -0.540700 -0.841200
vn 1.000000 -0.000000 0.000000
vn 0.943500 0.314500 0.104800
vn 0.943500 -0.104800 0.314500
vn -0.000500 0.948700 0.316200
vn 0.316200 -0.948700 0.000000
vn 0.316200 0.000000 0.948700
vn 0.943500 0.104800 0.314500
vn 0.301500 0.301500 0.904500
vn 0.301500 0.904500 0.301500
vn 0.943500 -0.314500 0.104800
vn 0.301500 -0.904500 0.301500
vn 0.301500 -0.301500 0.904500
vn 0.948700 -0.316200 0.000000
vn 0.948700 -0.000000 0.316200
vn -0.281700 -0.959500 0.000000
vn -0.432400 0.870300 0.235600
vn -0.841200 -0.540700 0.000000
vn -0.000500 -0.959500 -0.281700
vn -0.000000 -0.970900 -0.239500
vn -0.001600 -0.540700 -0.841200
vn -0.001600 -0.538800 -0.842400
vn 0.000000 1.000000 -0.000000
vn -0.316200 0.948700 -0.000000
vn -0.948700 0.316200 -0.000000
vn 0.316200 0.948700 -0.000000
vn 0.948700 0.316200 -0.000000
vn -0.943500 0.314500 -0.104800
vn -0.943500 -0.104800 -0.314500
vn 0.000000 0.948700 -0.316200
vn -0.316200 0.000000 -0.948700
vn -0.943500 0.104800 -0.314500
vn -0.301500 0.301500 -0.904500
vn -0.301500 0.904500 -0.301500
vn -0.943500 -0.314500 -0.104800
vn -0.301500 -0.904500 -0.301500
vn -0.301500 -0.301500 -0.904500
vn -0.000000 0.316200 -0.948700
vn -0.948700 -0.000000 -0.316200
vn -0.000000 0.000000 -1.000000
vn 0.000000 -0.948700 -0.316200
vn 0.000000 -0.316200 -0.948700
vn 0.000000 -0.959500 0.281700
vn -0.000000 -0.540700 0.841200
vn 0.943500 0.314500 -0.104800
vn 0.943500 -0.104800 -0.314500
vn 0.316200 0.000000 -0.948700
vn 0.943500 0.104800 -0.314500
vn 0.301500 0.301500 -0.904500
vn 0.301500 0.904500 -0.301500
vn 0.943500 -0.314500 -0.104800
vn 0.301500 -0.904500 -0.301500
vn 0.301500 -0.301500 -0.904500
vn 0.948700 0.000000 -0.316200
vn 0.000000 -0.909400 -0.415900
vn 0.251800 -0.921800 -0.294700
vn 0.400000 -0.916500 0.000000
vn 0.000000 -0.875900 -0.482500
vn 0.001500 -0.884000 -0.467500
vn 0.033200 -0.883500 -0.467200
vn 0.000000 -0.887200 -0.461300
vn 0.175200 -0.881800 -0.437800
vn -0.000000 -0.897900 -0.440300
vn 0.370300 -0.928900 -0.000000
vn 0.297200 -0.936800 -0.184500
vn 0.387500 -0.921900 -0.000000
vn 0.378000 -0.920200 -0.102100
vn -0.305000 -0.882900 -0.357100
vn -0.399900 -0.916400 -0.017100
vn -0.310700 -0.950500 0.000000
vn -0.001400 -0.884000 -0.467500
vn -0.033200 -0.883500 -0.467200
vn -0.175200 -0.881800 -0.437800
vn -0.297200 -0.936800 -0.184500
vn -0.370300 -0.928900 -0.000000
vn -0.378000 -0.920200 -0.102100
vn -0.387500 -0.921900 -0.000000
vn -0.254200 -0.762600 0.594800
vn -0.400000 -0.916500 -0.000000
vn 0.251800 -0.921800 0.294700
vn 0.000000 -0.909400 0.415900
vn 0.000000 -0.884000 0.467500
vn -0.000000 -0.887200 0.461300
vn 0.033200 -0.883500 0.467200
vn -0.000000 -0.897900 0.440300
vn 0.175200 -0.881800 0.437800
vn 0.297200 -0.936800 0.184500
vn 0.378000 -0.920200 0.102100
vn -0.251800 -0.921800 0.294700
vn -0.033200 -0.883500 0.467200
vn -0.175200 -0.881800 0.437800
vn -0.297200 -0.936800 0.184500
vn -0.378000 -0.920200 0.102100
usemtl karkas
s off
f 79/1/1 80/1/1 2/2/1
f 2/2/1 1/2/1 79/1/1
f 1/2/2 13/3/2 9/4/2
f 2/2/3 14/3/3 12/5/3
f 8/6/4 36/7/4 42/8/4
f 42/8/5 4/9/5 8/6/5
f 10/4/6 81/10/6 82/11/6
f 10/4/6 82/11/6 15/12/6
f 5/9/6 10/4/6 15/12/6
f 12/5/7 6/13/7 3/13/7
f 3/13/7 7/5/7 12/5/7
f 1/2/8 7/5/8 13/3/8
f 8/6/9 13/3/9 7/5/9
f 7/5/9 3/13/9 8/6/9
f 4/9/10 9/4/10 13/3/10
f 13/3/10 8/6/10 4/9/10
f 2/2/11 10/4/11 14/3/11
f 11/6/12 14/3/12 10/4/12
f 10/4/12 5/9/12 11/6/12
f 6/13/13 12/5/13 14/3/13
f 14/3/13 11/6/13 6/13/13
f 3/13/14 34/14/14 36/7/14
f 36/7/14 8/6/14 3/13/14
f 2/2/15 80/1/15 81/10/15
f 81/10/15 10/4/15 2/2/15
f 2/2/16 12/5/16 7/5/16
f 7/5/16 1/2/16 2/2/16
f 15/12/17 82/11/17 83/15/17
f 83/15/17 16/16/17 15/12/17
f 83/15/18 110/17/18 17/18/18
f 17/18/18 16/16/18 83/15/18
f 17/18/19 110/17/19 112/19/19
f 17/18/19 112/19/19 19/20/19
f 17/18/19 19/20/19 18/21/19
f 3/13/20 6/13/20 35/14/20
f 35/14/20 34/14/20 3/13/20
f 11/6/21 5/9/21 75/22/21
f 75/22/21 37/7/21 11/6/21
f 6/13/22 11/6/22 37/7/22
f 37/7/22 35/14/22 6/13/22
f 75/22/17 5/9/17 15/12/17
f 75/22/17 15/12/17 16/16/17
f 75/22/17 16/16/17 76/23/17
f 76/23/23 16/16/23 17/18/23
f 17/18/23 77/24/23 76/23/23
f 77/24/24 17/18/24 18/21/24
f 18/21/24 38/25/24 77/24/24
f 51/26/25 87/27/25 86/27/25
f 86/27/25 50/26/25 51/26/25
f 50/26/26 53/28/26 52/29/26
f 51/26/27 55/30/27 54/29/27
f 56/31/28 41/32/28 42/8/28
f 42/8/4 36/7/4 56/31/4
f 59/33/29 148/34/29 149/35/29
f 57/32/29 59/33/29 149/35/29
f 57/32/29 149/35/29 58/28/29
f 55/30/30 61/30/30 60/36/30
f 60/36/30 62/36/30 55/30/30
f 50/26/31 52/29/31 61/30/31
f 56/31/32 60/36/32 61/30/32
f 61/30/32 52/29/32 56/31/32
f 41/32/33 56/31/33 52/29/33
f 52/29/33 53/28/33 41/32/33
f 51/26/34 54/29/34 58/28/34
f 63/31/35 57/32/35 58/28/35
f 58/28/35 54/29/35 63/31/35
f 62/36/36 63/31/36 54/29/36
f 54/29/36 55/30/36 62/36/36
f 60/36/14 56/31/14 36/7/14
f 36/7/14 34/14/14 60/36/14
f 149/35/37 87/27/37 51/26/37
f 51/26/37 58/28/37 149/35/37
f 51/26/38 50/26/38 61/30/38
f 61/30/38 55/30/38 51/26/38
f 156/37/17 148/34/17 59/33/17
f 59/33/17 64/38/17 156/37/17
f 65/39/39 158/40/39 156/37/39
f 156/37/39 64/38/39 65/39/39
f 65/39/40 67/41/40 66/42/40
f 65/39/41 66/42/41 89/43/41
f 65/39/41 89/43/41 158/40/41
f 60/36/20 34/14/20 35/14/20
f 35/14/20 62/36/20 60/36/20
f 63/31/21 37/7/21 75/22/21
f 75/22/21 57/32/21 63/31/21
f 62/36/22 35/14/22 37/7/22
f 37/7/22 63/31/22 62/36/22
f 75/22/17 76/23/17 64/38/17
f 75/22/17 64/38/17 59/33/17
f 75/22/17 59/33/17 57/32/17
f 76/23/42 77/24/42 65/39/42
f 65/39/43 64/38/43 76/23/43
f 77/24/44 38/25/44 67/41/44
f 67/41/45 65/39/45 77/24/45
f 4/9/46 42/8/46 85/44/46
f 85/44/46 78/11/46 4/9/46
f 9/4/47 4/9/47 78/11/47
f 78/11/47 177/10/47 9/4/47
f 1/2/48 9/4/48 177/10/48
f 1/2/48 177/10/48 79/1/48
f 42/8/46 41/32/46 178/34/46
f 178/34/46 85/44/46 42/8/46
f 41/32/49 53/28/49 88/35/49
f 88/35/49 178/34/49 41/32/49
f 53/28/50 50/26/50 86/27/50
f 86/27/50 88/35/50 53/28/50
f 79/1/1 91/45/1 92/45/1
f 92/45/1 80/1/1 79/1/1
f 91/45/51 94/46/51 93/47/51
f 92/45/52 96/48/52 95/47/52
f 98/49/53 97/50/53 100/51/53
f 100/51/53 99/52/53 98/49/53
f 82/11/6 81/10/6 102/46/6
f 103/53/6 82/11/6 102/46/6
f 101/50/6 103/53/6 102/46/6
f 96/48/54 105/48/54 104/54/54
f 104/54/54 106/54/54 96/48/54
f 91/45/55 93/47/55 105/48/55
f 98/49/56 104/54/56 105/48/56
f 105/48/56 93/47/56 98/49/56
f 97/50/57 98/49/57 93/47/57
f 93/47/57 94/46/57 97/50/57
f 92/45/58 95/47/58 102/46/58
f 107/49/59 101/50/59 102/46/59
f 102/46/59 95/47/59 107/49/59
f 106/54/60 107/49/60 95/47/60
f 95/47/60 96/48/60 106/54/60
f 104/54/61 98/49/61 99/52/61
f 99/52/61 108/55/61 104/54/61
f 92/45/15 102/46/15 81/10/15
f 81/10/15 80/1/15 92/45/15
f 92/45/62 91/45/62 105/48/62
f 105/48/62 96/48/62 92/45/62
f 103/53/17 109/56/17 83/15/17
f 83/15/17 82/11/17 103/53/17
f 83/15/18 109/56/18 111/57/18
f 111/57/18 110/17/18 83/15/18
f 111/57/19 114/58/19 113/59/19
f 111/57/19 113/59/19 112/19/19
f 111/57/19 112/19/19 110/17/19
f 104/54/63 108/55/63 132/55/63
f 132/55/63 106/54/63 104/54/63
f 107/49/64 133/52/64 134/51/64
f 134/51/64 101/50/64 107/49/64
f 106/54/65 132/55/65 133/52/65
f 133/52/65 107/49/65 106/54/65
f 134/51/17 135/60/17 109/56/17
f 134/51/17 109/56/17 103/53/17
f 134/51/17 103/53/17 101/50/17
f 135/60/66 136/61/66 111/57/66
f 111/57/66 109/56/66 135/60/66
f 136/61/67 137/62/67 114/58/67
f 114/58/67 111/57/67 136/61/67
f 139/63/25 138/63/25 86/27/25
f 86/27/25 87/27/25 139/63/25
f 138/63/68 141/64/68 140/65/68
f 139/63/69 143/64/69 142/66/69
f 145/67/53 99/52/53 100/51/53
f 100/51/53 144/68/53 145/67/53
f 146/68/29 150/65/29 149/35/29
f 149/35/29 148/34/29 147/69/29
f 146/68/29 149/35/29 147/69/29
f 142/66/70 152/70/70 151/70/70
f 151/70/70 153/66/70 142/66/70
f 138/63/71 153/66/71 141/64/71
f 145/67/72 141/64/72 153/66/72
f 153/66/72 151/70/72 145/67/72
f 144/68/73 140/65/73 141/64/73
f 141/64/73 145/67/73 144/68/73
f 139/63/74 150/65/74 143/64/74
f 154/67/75 143/64/75 150/65/75
f 150/65/75 146/68/75 154/67/75
f 152/70/76 142/66/76 143/64/76
f 143/64/76 154/67/76 152/70/76
f 151/70/61 108/55/61 99/52/61
f 99/52/61 145/67/61 151/70/61
f 149/35/37 150/65/37 139/63/37
f 139/63/37 87/27/37 149/35/37
f 139/63/77 142/66/77 153/66/77
f 153/66/77 138/63/77 139/63/77
f 156/37/17 155/71/17 147/69/17
f 147/69/17 148/34/17 156/37/17
f 157/72/39 155/71/39 156/37/39
f 156/37/39 158/40/39 157/72/39
f 157/72/41 158/40/41 89/43/41
f 157/72/41 89/43/41 160/73/41
f 157/72/41 160/73/41 159/74/41
f 151/70/63 152/70/63 132/55/63
f 132/55/63 108/55/63 151/70/63
f 154/67/64 146/68/64 134/51/64
f 134/51/64 133/52/64 154/67/64
f 152/70/65 154/67/65 133/52/65
f 133/52/65 132/55/65 152/70/65
f 134/51/17 146/68/17 147/69/17
f 134/51/17 147/69/17 155/71/17
f 134/51/17 155/71/17 135/60/17
f 135/60/66 155/71/66 157/72/66
f 157/72/66 136/61/66 135/60/66
f 136/61/67 157/72/67 159/74/67
f 159/74/67 137/62/67 136/61/67
f 97/50/46 78/11/46 85/44/46
f 85/44/46 100/51/46 97/50/46
f 94/46/47 177/10/47 78/11/47
f 78/11/47 97/50/47 94/46/47
f 91/45/48 79/1/48 177/10/48
f 177/10/48 94/46/48 91/45/48
f 100/51/46 85/44/46 178/34/46
f 178/34/46 144/68/46 100/51/46
f 144/68/49 178/34/49 88/35/49
f 88/35/49 140/65/49 144/68/49
f 140/65/50 88/35/50 86/27/50
f 86/27/50 138/63/50 140/65/50
usemtl panel
f 19/20/17 112/19/17 116/75/17
f 19/20/17 116/75/17 33/76/17
f 19/20/17 33/76/17 31/77/17
f 19/20/17 31/77/17 29/78/17
f 20/79/17 19/20/17 29/78/17
f 27/80/78 20/79/78 21/81/78
f 21/81/79 26/82/79 27/80/79
f 116/75/80 84/83/80 32/84/80
f 32/84/80 33/76/80 116/75/80
f 40/85/81 39/86/81 23/87/81
f 23/87/82 22/88/82 40/85/82
f 24/89/83 22/88/83 23/87/83
f 23/87/84 25/90/84 24/89/84
f 26/82/85 24/89/85 25/90/85
f 25/90/86 27/80/86 26/82/86
f 21/81/87 20/79/87 29/78/87
f 29/78/88 28/91/88 21/81/88
f 28/91/89 29/78/89 31/77/89
f 31/77/90 30/92/90 28/91/90
f 30/92/80 31/77/80 33/76/80
f 33/76/80 32/84/80 30/92/80
f 38/25/17 18/21/17 19/20/17
f 38/25/17 19/20/17 20/79/17
f 38/25/17 20/79/17 27/80/17
f 38/25/17 27/80/17 25/90/17
f 38/25/17 25/90/17 23/87/17
f 38/25/17 23/87/17 39/86/17
f 69/93/17 90/94/17 89/43/17
f 70/95/17 69/93/17 89/43/17
f 71/96/17 70/95/17 89/43/17
f 68/97/17 71/96/17 89/43/17
f 68/97/17 89/43/17 66/42/17
f 72/98/91 45/99/91 46/100/91
f 46/100/78 68/97/78 72/98/78
f 49/101/92 169/102/92 90/94/92
f 90/94/93 69/93/93 49/101/93
f 40/85/94 43/103/94 73/104/94
f 73/104/81 39/86/81 40/85/81
f 44/105/84 74/106/84 73/104/84
f 73/104/95 43/103/95 44/105/95
f 45/99/86 72/98/86 74/106/86
f 74/106/96 44/105/96 45/99/96
f 46/100/97 47/107/97 71/96/97
f 71/96/98 68/97/98 46/100/98
f 47/107/99 48/108/99 70/95/99
f 70/95/100 71/96/100 47/107/100
f 48/108/101 49/101/101 69/93/101
f 69/93/102 70/95/102 48/108/102
f 38/25/17 39/86/17 73/104/17
f 38/25/17 73/104/17 74/106/17
f 38/25/17 74/106/17 72/98/17
f 38/25/17 72/98/17 68/97/17
f 38/25/17 68/97/17 66/42/17
f 38/25/17 66/42/17 67/41/17
f 176/44/17 40/85/17 22/88/17
f 22/88/17 24/89/17 26/82/17
f 26/82/17 21/81/17 28/91/17
f 22/88/17 26/82/17 28/91/17
f 28/91/17 30/92/17 32/84/17
f 22/88/17 28/91/17 32/84/17
f 176/44/17 22/88/17 32/84/17
f 176/44/17 32/84/17 84/83/17
f 49/101/17 48/108/17 47/107/17
f 169/102/46 49/101/46 47/107/46
f 47/107/17 46/100/17 45/99/17
f 45/99/17 44/105/17 43/103/17
f 47/107/17 45/99/17 43/103/17
f 169/102/17 47/107/17 43/103/17
f 169/102/17 43/103/17 40/85/17
f 169/102/17 40/85/17 176/44/17
f 116/75/17 112/19/17 113/59/17
f 117/109/17 116/75/17 113/59/17
f 118/110/17 117/109/17 113/59/17
f 119/111/17 118/110/17 113/59/17
f 115/112/17 119/111/17 113/59/17
f 120/113/103 122/114/103 121/115/103
f 121/115/104 115/112/104 120/113/104
f 116/75/80 117/109/80 123/116/80
f 123/116/80 84/83/80 116/75/80
f 125/117/105 124/118/105 127/119/105
f 127/119/105 126/120/105 125/117/105
f 128/121/106 129/122/106 127/119/106
f 127/119/107 124/118/107 128/121/107
f 122/114/108 120/113/108 129/122/108
f 129/122/109 128/121/109 122/114/109
f 121/115/110 130/123/110 119/111/110
f 119/111/87 115/112/87 121/115/87
f 130/123/111 131/124/111 118/110/111
f 118/110/89 119/111/89 130/123/89
f 131/124/80 123/116/80 117/109/80
f 117/109/80 118/110/80 131/124/80
f 137/62/17 126/120/17 127/119/17
f 137/62/17 127/119/17 129/122/17
f 137/62/17 129/122/17 120/113/17
f 137/62/17 120/113/17 115/112/17
f 137/62/17 115/112/17 113/59/17
f 137/62/17 113/59/17 114/58/17
f 161/125/17 160/73/17 89/43/17
f 89/43/17 90/94/17 164/126/17
f 89/43/17 164/126/17 163/127/17
f 89/43/17 163/127/17 162/128/17
f 161/125/17 89/43/17 162/128/17
f 165/129/104 161/125/104 167/130/104
f 167/130/112 166/131/112 165/129/112
f 168/132/102 164/126/102 90/94/102
f 90/94/102 169/102/102 168/132/102
f 125/117/105 126/120/105 171/133/105
f 171/133/105 170/134/105 125/117/105
f 172/135/113 170/134/113 171/133/113
f 171/133/106 173/136/106 172/135/106
f 166/131/114 172/135/114 173/136/114
f 173/136/108 165/129/108 166/131/108
f 167/130/98 161/125/98 162/128/98
f 162/128/115 174/137/115 167/130/115
f 174/137/100 162/128/100 163/127/100
f 163/127/116 175/138/116 174/137/116
f 175/138/102 163/127/102 164/126/102
f 164/126/102 168/132/102 175/138/102
f 137/62/17 159/74/17 160/73/17
f 137/62/17 160/73/17 161/125/17
f 137/62/17 161/125/17 165/129/17
f 137/62/17 165/129/17 173/136/17
f 137/62/17 173/136/17 171/133/17
f 137/62/17 171/133/17 126/120/17
f 176/44/17 84/83/17 123/116/17
f 123/116/17 131/124/17 130/123/17
f 130/123/17 121/115/17 122/114/17
f 122/114/17 128/121/17 124/118/17
f 130/123/17 122/114/17 124/118/17
f 123/116/17 130/123/17 124/118/17
f 176/44/17 123/116/17 124/118/17
f 176/44/17 124/118/17 125/117/17
f 169/102/17 176/44/17 125/117/17
f 169/102/17 125/117/17 170/134/17
f 170/134/17 172/135/17 166/131/17
f 166/131/17 167/130/17 174/137/17
f 170/134/17 166/131/17 174/137/17
f 169/102/17 170/134/17 174/137/17
f 174/137/17 175/138/17 168/132/17
f 169/102/17 174/137/17 168/132/17
