# Blender v2.76 (sub 0) OBJ File: ''
# www.blender.org
mtllib wallcoat.mtl
o 7:1
v 0.196850 1.257296 0.025400
v 0.196850 1.257296 -0.939800
v 0.196850 1.231897 0.025400
v 0.196850 1.231897 -0.939800
v 0.158750 1.231897 0.025400
v 0.158750 1.231897 -0.939800
v 0.158750 1.257296 0.025400
v 0.158750 1.257296 -0.939800
vn 1.000000 0.000000 0.000000
vn 0.000000 -1.000000 0.000000
vn -1.000000 -0.000000 0.000000
vn 0.000000 1.000000 0.000000
vn -0.000000 0.000000 1.000000
vn -0.000000 0.000000 -1.000000
usemtl Wood-Walnut
s off
f 1//1 3//1 4//1
f 1//1 4//1 2//1
f 3//2 5//2 6//2
f 3//2 6//2 4//2
f 5//3 7//3 8//3
f 5//3 8//3 6//3
f 7//4 1//4 2//4
f 7//4 2//4 8//4
f 1//5 7//5 5//5
f 1//5 5//5 3//5
f 2//6 4//6 6//6
f 2//6 6//6 8//6
o 6:1
v 0.069850 1.257296 0.025400
v 0.069850 1.257296 -0.939800
v 0.069850 1.231897 0.025400
v 0.069850 1.231897 -0.939800
v 0.031750 1.231897 0.025400
v 0.031750 1.231897 -0.939800
v 0.031750 1.257296 0.025400
v 0.031750 1.257296 -0.939800
vn 1.000000 0.000000 0.000000
vn 0.000000 -1.000000 -0.000000
vn -1.000000 0.000000 0.000000
vn 0.000000 1.000000 0.000000
vn -0.000000 0.000000 1.000000
vn -0.000000 0.000000 -1.000000
usemtl Wood-Walnut
s off
f 9//7 11//7 12//7
f 9//7 12//7 10//7
f 11//8 13//8 14//8
f 11//8 14//8 12//8
f 13//9 15//9 16//9
f 13//9 16//9 14//9
f 15//10 9//10 10//10
f 15//10 10//10 16//10
f 9//11 15//11 13//11
f 9//11 13//11 11//11
f 10//12 12//12 14//12
f 10//12 14//12 16//12
o 5:1
v 0.133350 1.257296 0.025400
v 0.133350 1.257296 -0.939800
v 0.133350 1.231897 0.025400
v 0.133350 1.231897 -0.939800
v 0.095250 1.231897 0.025400
v 0.095250 1.231897 -0.939800
v 0.095250 1.257296 0.025400
v 0.095250 1.257296 -0.939800
vn 1.000000 -0.000000 0.000000
vn 0.000000 -1.000000 0.000000
vn -1.000000 -0.000000 0.000000
vn 0.000000 1.000000 0.000000
vn -0.000000 0.000000 1.000000
vn -0.000000 0.000000 -1.000000
usemtl Wood-Walnut
s off
f 17//13 19//13 20//13
f 17//13 20//13 18//13
f 19//14 21//14 22//14
f 19//14 22//14 20//14
f 21//15 23//15 24//15
f 21//15 24//15 22//15
f 23//16 17//16 18//16
f 23//16 18//16 24//16
f 17//17 23//17 21//17
f 17//17 21//17 19//17
f 18//18 20//18 22//18
f 18//18 22//18 24//18
o 4:1
v 0.260351 1.257296 0.025400
v 0.260351 1.257296 -0.939800
v 0.260351 1.231897 0.025400
v 0.260351 1.231897 -0.939800
v 0.222251 1.231897 0.025400
v 0.222251 1.231897 -0.939800
v 0.222251 1.257296 0.025400
v 0.222251 1.257296 -0.939800
vn 1.000000 -0.000000 0.000000
vn 0.000000 -1.000000 0.000000
vn -1.000000 0.000000 0.000000
vn 0.000000 1.000000 0.000000
vn -0.000000 0.000000 1.000000
vn -0.000000 0.000000 -1.000000
usemtl Wood-Walnut
s off
f 25//19 27//19 28//19
f 25//19 28//19 26//19
f 27//20 29//20 30//20
f 27//20 30//20 28//20
f 29//21 31//21 32//21
f 29//21 32//21 30//21
f 31//22 25//22 26//22
f 31//22 26//22 32//22
f 25//23 31//23 29//23
f 25//23 29//23 27//23
f 26//24 28//24 30//24
f 26//24 30//24 32//24
o 3:1
v 0.250633 1.164513 -0.000000
v 0.250633 1.164513 -0.050800
v 0.215260 1.206497 -0.000000
v 0.215260 1.206497 -0.050800
v 0.006350 1.206497 -0.000000
v 0.006350 1.206497 -0.050800
v 0.006350 1.066797 -0.000000
v 0.006350 1.066797 -0.050800
v -0.000000 1.066797 -0.000000
v -0.000000 1.066797 -0.050800
v -0.000000 1.371596 -0.000000
v -0.000000 1.371596 -0.050800
v 0.006350 1.371596 -0.000000
v 0.006350 1.371596 -0.050800
v 0.006350 1.231897 -0.000000
v 0.006350 1.231897 -0.050800
v 0.259373 1.231897 -0.000000
v 0.259373 1.231897 -0.050800
v 0.282327 1.185643 -0.000000
v 0.282327 1.185643 -0.050800
v 0.281875 1.186385 -0.000000
v 0.281875 1.186385 -0.050800
v 0.279622 1.188844 -0.000000
v 0.279622 1.188844 -0.050800
v 0.276978 1.190873 -0.000000
v 0.276978 1.190873 -0.050800
v 0.274021 1.192412 -0.000000
v 0.274021 1.192412 -0.050800
v 0.270843 1.193416 -0.000000
v 0.270843 1.193416 -0.050800
v 0.267539 1.193850 -0.000000
v 0.267539 1.193850 -0.050800
v 0.264209 1.193705 -0.000000
v 0.264209 1.193705 -0.050800
v 0.260953 1.192986 -0.000000
v 0.260953 1.192986 -0.050800
v 0.257874 1.191711 -0.000000
v 0.257874 1.191711 -0.050800
v 0.255062 1.189921 -0.000000
v 0.255062 1.189921 -0.050800
v 0.252604 1.187668 -0.000000
v 0.252604 1.187668 -0.050800
v 0.250574 1.185023 -0.000000
v 0.250574 1.185023 -0.050800
v 0.249035 1.182067 -0.000000
v 0.249035 1.182067 -0.050800
v 0.248032 1.178889 -0.000000
v 0.248032 1.178889 -0.050800
v 0.247597 1.175585 -0.000000
v 0.247597 1.175585 -0.050800
v 0.247742 1.172255 -0.000000
v 0.247742 1.172255 -0.050800
v 0.248461 1.168999 -0.000000
v 0.248461 1.168999 -0.050800
v 0.249736 1.165920 -0.000000
v 0.249736 1.165920 -0.050800
v 0.282327 1.066797 -0.000000
vn -0.764800 -0.644300 0.000000
vn 0.000000 -1.000000 0.000000
vn 1.000000 -0.000000 0.000000
vn -1.000000 -0.000000 -0.000000
vn 0.000000 1.000000 0.000000
vn 0.895800 0.444500 -0.000000
vn -0.853900 -0.520500 -0.000000
vn -0.737300 -0.675600 -0.000000
vn -0.608900 -0.793300 0.000000
vn -0.461800 -0.887000 -0.000000
vn -0.301100 -0.953600 -0.000000
vn -0.130300 -0.991500 -0.000000
vn 0.043400 -0.999100 0.000000
vn 0.215600 -0.976500 0.000000
vn 0.382700 -0.923900 0.000000
vn 0.537200 -0.843500 -0.000000
vn 0.675600 -0.737300 -0.000000
vn 0.793300 -0.608900 0.000000
vn 0.887000 -0.461800 -0.000000
vn 0.953600 -0.301100 0.000000
vn 0.991500 -0.130300 -0.000000
vn 0.999100 0.043400 -0.000000
vn 0.976500 0.215600 0.000000
vn 0.923900 0.382700 0.000000
vn 0.843300 0.537400 0.000000
vn -0.000000 0.000000 1.000000
vn 0.000000 0.000000 -1.000000
usemtl Metal-Iron
s off
f 33//25 35//25 36//25
f 33//25 36//25 34//25
f 35//26 37//26 38//26
f 35//26 38//26 36//26
f 37//27 39//27 40//27
f 37//27 40//27 38//27
f 39//26 41//26 42//26
f 39//26 42//26 40//26
f 41//28 43//28 44//28
f 41//28 44//28 42//28
f 43//29 45//29 46//29
f 43//29 46//29 44//29
f 45//27 47//27 48//27
f 45//27 48//27 46//27
f 47//29 49//29 50//29
f 47//29 50//29 48//29
f 49//30 51//30 52//30
f 49//30 52//30 50//30
f 51//31 53//31 54//31
f 51//31 54//31 52//31
f 53//32 55//32 56//32
f 53//32 56//32 54//32
f 55//33 57//33 58//33
f 55//33 58//33 56//33
f 57//34 59//34 60//34
f 57//34 60//34 58//34
f 59//35 61//35 62//35
f 59//35 62//35 60//35
f 61//36 63//36 64//36
f 61//36 64//36 62//36
f 63//37 65//37 66//37
f 63//37 66//37 64//37
f 65//38 67//38 68//38
f 65//38 68//38 66//38
f 67//39 69//39 70//39
f 67//39 70//39 68//39
f 69//40 71//40 72//40
f 69//40 72//40 70//40
f 71//41 73//41 74//41
f 71//41 74//41 72//41
f 73//42 75//42 76//42
f 73//42 76//42 74//42
f 75//43 77//43 78//43
f 75//43 78//43 76//43
f 77//44 79//44 80//44
f 77//44 80//44 78//44
f 79//45 81//45 82//45
f 79//45 82//45 80//45
f 81//46 83//46 84//46
f 81//46 84//46 82//46
f 83//47 85//47 86//47
f 83//47 86//47 84//47
f 85//48 87//48 88//48
f 85//48 88//48 86//48
f 87//49 33//49 34//49
f 87//49 34//49 88//49
f 47//50 45//50 43//50
f 37//50 35//50 47//50
f 49//50 47//50 35//50
f 37//50 47//50 43//50
f 49//50 35//50 63//50
f 65//50 63//50 35//50
f 49//50 63//50 61//50
f 67//50 65//50 35//50
f 49//50 61//50 59//50
f 69//50 67//50 35//50
f 49//50 59//50 57//50
f 71//50 69//50 35//50
f 49//50 57//50 55//50
f 73//50 71//50 35//50
f 49//50 55//50 53//50
f 51//50 49//50 53//50
f 75//50 73//50 35//50
f 77//50 75//50 35//50
f 79//50 77//50 35//50
f 81//50 79//50 35//50
f 83//50 81//50 35//50
f 85//50 83//50 35//50
f 87//50 85//50 35//50
f 33//50 87//50 35//50
f 39//50 37//50 41//50
f 41//50 37//50 43//50
f 44//51 46//51 48//51
f 36//51 38//51 48//51
f 44//51 48//51 38//51
f 36//51 48//51 50//51
f 64//51 36//51 50//51
f 36//51 64//51 66//51
f 62//51 64//51 50//51
f 36//51 66//51 68//51
f 60//51 62//51 50//51
f 36//51 68//51 70//51
f 58//51 60//51 50//51
f 36//51 70//51 72//51
f 56//51 58//51 50//51
f 36//51 72//51 74//51
f 54//51 56//51 50//51
f 52//51 54//51 50//51
f 36//51 74//51 76//51
f 36//51 76//51 78//51
f 36//51 78//51 80//51
f 36//51 80//51 82//51
f 36//51 82//51 84//51
f 36//51 84//51 86//51
f 36//51 86//51 88//51
f 34//51 36//51 88//51
f 42//51 44//51 38//51
f 42//51 38//51 40//51
o 2:1
v 0.250633 1.164513 -0.863600
v 0.250633 1.164513 -0.914400
v 0.215260 1.206497 -0.863600
v 0.215260 1.206497 -0.914400
v 0.006350 1.206497 -0.863600
v 0.006350 1.206497 -0.914400
v 0.006350 1.066797 -0.863600
v 0.006350 1.066797 -0.914400
v -0.000000 1.066797 -0.863600
v -0.000000 1.066797 -0.914400
v -0.000000 1.371596 -0.863600
v -0.000000 1.371596 -0.914400
v 0.006350 1.371596 -0.863600
v 0.006350 1.371596 -0.914400
v 0.006350 1.231897 -0.863600
v 0.006350 1.231897 -0.914400
v 0.259373 1.231897 -0.863600
v 0.259373 1.231897 -0.914400
v 0.282327 1.185643 -0.863600
v 0.282327 1.185643 -0.914400
v 0.281875 1.186385 -0.863600
v 0.281875 1.186385 -0.914400
v 0.279622 1.188844 -0.863600
v 0.279622 1.188844 -0.914400
v 0.276978 1.190873 -0.863600
v 0.276978 1.190873 -0.914400
v 0.274021 1.192412 -0.863600
v 0.274021 1.192412 -0.914400
v 0.270843 1.193416 -0.863600
v 0.270843 1.193416 -0.914400
v 0.267539 1.193850 -0.863600
v 0.267539 1.193850 -0.914400
v 0.264209 1.193705 -0.863600
v 0.264209 1.193705 -0.914400
v 0.260953 1.192986 -0.863600
v 0.260953 1.192986 -0.914400
v 0.257874 1.191711 -0.863600
v 0.257874 1.191711 -0.914400
v 0.255062 1.189921 -0.863600
v 0.255062 1.189921 -0.914400
v 0.252604 1.187668 -0.863600
v 0.252604 1.187668 -0.914400
v 0.250574 1.185023 -0.863600
v 0.250574 1.185023 -0.914400
v 0.249035 1.182067 -0.863600
v 0.249035 1.182067 -0.914400
v 0.248032 1.178889 -0.863600
v 0.248032 1.178889 -0.914400
v 0.247597 1.175585 -0.863600
v 0.247597 1.175585 -0.914400
v 0.247742 1.172255 -0.863600
v 0.247742 1.172255 -0.914400
v 0.248461 1.168999 -0.863600
v 0.248461 1.168999 -0.914400
v 0.249736 1.165920 -0.863600
v 0.249736 1.165920 -0.914400
v 0.282327 1.066797 -0.863600
vn -0.764800 -0.644300 0.000000
vn 0.000000 -1.000000 0.000000
vn 1.000000 0.000000 0.000000
vn -1.000000 -0.000000 -0.000000
vn 0.000000 1.000000 0.000000
vn 0.895800 0.444500 -0.000000
vn -0.853900 -0.520500 -0.000000
vn -0.737300 -0.675600 -0.000000
vn -0.608900 -0.793300 0.000000
vn -0.461800 -0.887000 -0.000000
vn -0.301100 -0.953600 -0.000000
vn -0.130300 -0.991500 -0.000000
vn 0.043400 -0.999100 0.000000
vn 0.215600 -0.976500 0.000000
vn 0.382700 -0.923900 0.000000
vn 0.537200 -0.843500 -0.000000
vn 0.675600 -0.737300 -0.000000
vn 0.793300 -0.608900 0.000000
vn 0.887000 -0.461800 -0.000000
vn 0.953600 -0.301100 0.000000
vn 0.991500 -0.130300 -0.000000
vn 0.999100 0.043400 -0.000000
vn 0.976500 0.215600 0.000000
vn 0.923900 0.382700 0.000000
vn 0.843300 0.537400 0.000000
vn 0.000000 0.000000 1.000000
vn -0.000100 0.000000 1.000000
vn 0.000100 0.000000 1.000000
vn -0.000900 0.000000 1.000000
vn 0.000000 0.000000 -1.000000
vn 0.000100 0.000000 -1.000000
vn -0.000100 0.000000 -1.000000
vn 0.001400 0.000000 -1.000000
usemtl Metal-Iron
s off
f 90//52 92//52 93//52
f 90//52 93//52 91//52
f 92//53 94//53 95//53
f 92//53 95//53 93//53
f 94//54 96//54 97//54
f 94//54 97//54 95//54
f 96//53 98//53 99//53
f 96//53 99//53 97//53
f 98//55 100//55 101//55
f 98//55 101//55 99//55
f 100//56 102//56 103//56
f 100//56 103//56 101//56
f 102//54 104//54 105//54
f 102//54 105//54 103//54
f 104//56 106//56 107//56
f 104//56 107//56 105//56
f 106//57 108//57 109//57
f 106//57 109//57 107//57
f 108//58 110//58 111//58
f 108//58 111//58 109//58
f 110//59 112//59 113//59
f 110//59 113//59 111//59
f 112//60 114//60 115//60
f 112//60 115//60 113//60
f 114//61 116//61 117//61
f 114//61 117//61 115//61
f 116//62 118//62 119//62
f 116//62 119//62 117//62
f 118//63 120//63 121//63
f 118//63 121//63 119//63
f 120//64 122//64 123//64
f 120//64 123//64 121//64
f 122//65 124//65 125//65
f 122//65 125//65 123//65
f 124//66 126//66 127//66
f 124//66 127//66 125//66
f 126//67 128//67 129//67
f 126//67 129//67 127//67
f 128//68 130//68 131//68
f 128//68 131//68 129//68
f 130//69 132//69 133//69
f 130//69 133//69 131//69
f 132//70 134//70 135//70
f 132//70 135//70 133//70
f 134//71 136//71 137//71
f 134//71 137//71 135//71
f 136//72 138//72 139//72
f 136//72 139//72 137//72
f 138//73 140//73 141//73
f 138//73 141//73 139//73
f 140//74 142//74 143//74
f 140//74 143//74 141//74
f 142//75 144//75 145//75
f 142//75 145//75 143//75
f 144//76 90//76 91//76
f 144//76 91//76 145//76
f 104//77 102//77 100//77
f 94//77 92//77 104//77
f 106//77 104//77 92//77
f 94//78 104//78 100//78
f 106//77 92//77 120//77
f 122//77 120//77 92//77
f 106//77 120//77 118//77
f 124//77 122//77 92//77
f 106//77 118//77 116//77
f 126//77 124//77 92//77
f 106//77 116//77 114//77
f 128//77 126//77 92//77
f 106//79 114//79 112//79
f 130//77 128//77 92//77
f 106//78 112//78 110//78
f 108//80 106//80 110//80
f 132//77 130//77 92//77
f 134//77 132//77 92//77
f 136//77 134//77 92//77
f 138//77 136//77 92//77
f 140//77 138//77 92//77
f 142//77 140//77 92//77
f 144//77 142//77 92//77
f 90//78 144//78 92//78
f 96//77 94//77 98//77
f 98//77 94//77 100//77
f 101//81 103//81 105//81
f 93//81 95//81 105//81
f 101//82 105//82 95//82
f 93//81 105//81 107//81
f 121//81 93//81 107//81
f 93//81 121//81 123//81
f 119//81 121//81 107//81
f 93//81 123//81 125//81
f 117//81 119//81 107//81
f 93//81 125//81 127//81
f 115//83 117//83 107//83
f 93//81 127//81 129//81
f 113//81 115//81 107//81
f 93//81 129//81 131//81
f 111//81 113//81 107//81
f 109//84 111//84 107//84
f 93//81 131//81 133//81
f 93//81 133//81 135//81
f 93//81 135//81 137//81
f 93//81 137//81 139//81
f 93//81 139//81 141//81
f 93//81 141//81 143//81
f 93//81 143//81 145//81
f 91//82 93//82 145//82
f 99//81 101//81 95//81
f 99//81 95//81 97//81
o 1:1
v 0.247651 1.174747 -0.000000
v 0.247651 1.174747 -0.914400
v 0.247651 1.176413 -0.000000
v 0.247651 1.176413 -0.914400
v 0.248230 1.179697 -0.000000
v 0.248230 1.179697 -0.914400
v 0.249370 1.182829 -0.000000
v 0.249370 1.182829 -0.914400
v 0.251036 1.185714 -0.000000
v 0.251036 1.185714 -0.914400
v 0.253178 1.188270 -0.000000
v 0.253178 1.188270 -0.914400
v 0.255733 1.190411 -0.000000
v 0.255733 1.190411 -0.914400
v 0.258618 1.192077 -0.000000
v 0.258618 1.192077 -0.914400
v 0.261750 1.193218 -0.000000
v 0.261750 1.193218 -0.914400
v 0.265034 1.193797 -0.000000
v 0.265034 1.193797 -0.914400
v 0.268367 1.193797 -0.000000
v 0.268367 1.193797 -0.914400
v 0.271651 1.193218 -0.000000
v 0.271651 1.193218 -0.914400
v 0.274783 1.192077 -0.000000
v 0.274783 1.192077 -0.914400
v 0.277668 1.190411 -0.000000
v 0.277668 1.190411 -0.914400
v 0.280224 1.188270 -0.000000
v 0.280224 1.188270 -0.914400
v 0.282365 1.185714 -0.000000
v 0.282365 1.185714 -0.914400
v 0.284031 1.182829 -0.000000
v 0.284031 1.182829 -0.914400
v 0.285172 1.179697 -0.000000
v 0.285172 1.179697 -0.914400
v 0.285751 1.176413 -0.000000
v 0.285751 1.176413 -0.914400
v 0.285751 1.174747 -0.000000
v 0.285751 1.174747 -0.914400
v 0.285751 1.173080 -0.000000
v 0.285751 1.173080 -0.914400
v 0.285172 1.169796 -0.000000
v 0.285172 1.169796 -0.914400
v 0.284031 1.166664 -0.000000
v 0.284031 1.166664 -0.914400
v 0.282365 1.163779 -0.000000
v 0.282365 1.163779 -0.914400
v 0.280224 1.161224 -0.000000
v 0.280224 1.161224 -0.914400
v 0.277668 1.159083 -0.000000
v 0.277668 1.159083 -0.914400
v 0.274783 1.157416 -0.000000
v 0.274783 1.157416 -0.914400
v 0.271651 1.156276 -0.000000
v 0.271651 1.156276 -0.914400
v 0.268367 1.155697 -0.000000
v 0.268367 1.155697 -0.914400
v 0.265034 1.155697 -0.000000
v 0.265034 1.155697 -0.914400
v 0.261750 1.156276 -0.000000
v 0.261750 1.156276 -0.914400
v 0.258618 1.157416 -0.000000
v 0.258618 1.157416 -0.914400
v 0.255733 1.159083 -0.000000
v 0.255733 1.159083 -0.914400
v 0.253178 1.161224 -0.000000
v 0.253178 1.161224 -0.914400
v 0.251036 1.163779 -0.000000
v 0.251036 1.163779 -0.914400
v 0.249370 1.166664 -0.000000
v 0.249370 1.166664 -0.914400
v 0.248230 1.169796 -0.000000
v 0.248230 1.169796 -0.914400
v 0.247651 1.173080 -0.000000
v 0.247651 1.173080 -0.914400
v 0.288769 1.190199 -0.000000
v 0.282153 1.152678 -0.000000
v 0.251248 1.196815 -0.000000
v 0.288769 1.190199 -0.914400
vn -1.000000 0.000000 0.000000
vn -0.984800 0.173700 -0.000000
vn -0.939600 0.342200 0.000000
vn -0.866000 0.500100 -0.000000
vn -0.766500 0.642300 -0.000000
vn -0.642300 0.766500 -0.000000
vn -0.500100 0.866000 -0.000000
vn -0.342200 0.939600 0.000000
vn -0.173700 0.984800 0.000000
vn 0.000000 1.000000 0.000000
vn 0.173700 0.984800 0.000000
vn 0.342200 0.939600 0.000000
vn 0.500100 0.866000 0.000000
vn 0.642300 0.766500 0.000000
vn 0.766500 0.642300 -0.000000
vn 0.866000 0.500100 -0.000000
vn 0.939600 0.342200 0.000000
vn 0.984800 0.173700 -0.000000
vn 1.000000 -0.000000 0.000000
vn 0.984800 -0.173600 -0.000000
vn 0.984800 -0.173700 0.000000
vn 0.939600 -0.342200 0.000000
vn 0.866000 -0.500100 0.000000
vn 0.766500 -0.642300 0.000000
vn 0.642300 -0.766500 0.000000
vn 0.500100 -0.866000 -0.000000
vn 0.342200 -0.939600 0.000000
vn 0.173700 -0.984800 0.000000
vn 0.000000 -1.000000 0.000000
vn -0.173700 -0.984800 0.000000
vn -0.342200 -0.939600 0.000000
vn -0.500100 -0.866000 -0.000000
vn -0.642300 -0.766500 -0.000000
vn -0.766500 -0.642300 0.000000
vn -0.866000 -0.500100 0.000000
vn -0.939600 -0.342200 0.000000
vn -0.984800 -0.173700 -0.000000
vn 0.000000 0.000000 1.000000
vn -0.000300 0.000000 -1.000000
vn -0.000100 0.000000 -1.000000
vn 0.000100 0.000000 -1.000000
vn 0.000000 0.000000 -1.000000
vn 0.000200 0.000000 -1.000000
usemtl Metal-Iron
s off
f 147//85 149//85 150//85
f 147//85 150//85 148//85
f 149//86 151//86 152//86
f 149//86 152//86 150//86
f 151//87 153//87 154//87
f 151//87 154//87 152//87
f 153//88 155//88 156//88
f 153//88 156//88 154//88
f 155//89 157//89 158//89
f 155//89 158//89 156//89
f 157//90 159//90 160//90
f 157//90 160//90 158//90
f 159//91 161//91 162//91
f 159//91 162//91 160//91
f 161//92 163//92 164//92
f 161//92 164//92 162//92
f 163//93 165//93 166//93
f 163//93 166//93 164//93
f 165//94 167//94 168//94
f 165//94 168//94 166//94
f 167//95 169//95 170//95
f 167//95 170//95 168//95
f 169//96 171//96 172//96
f 169//96 172//96 170//96
f 171//97 173//97 174//97
f 171//97 174//97 172//97
f 173//98 175//98 176//98
f 173//98 176//98 174//98
f 175//99 177//99 178//99
f 175//99 178//99 176//99
f 177//100 179//100 180//100
f 177//100 180//100 178//100
f 179//101 181//101 182//101
f 179//101 182//101 180//101
f 181//102 183//102 184//102
f 181//102 184//102 182//102
f 183//103 185//103 186//103
f 183//103 186//103 184//103
f 185//103 187//103 188//103
f 185//103 188//103 186//103
f 187//104 189//104 190//104
f 187//105 190//105 188//105
f 189//106 191//106 192//106
f 189//106 192//106 190//106
f 191//107 193//107 194//107
f 191//107 194//107 192//107
f 193//108 195//108 196//108
f 193//108 196//108 194//108
f 195//109 197//109 198//109
f 195//109 198//109 196//109
f 197//110 199//110 200//110
f 197//110 200//110 198//110
f 199//111 201//111 202//111
f 199//111 202//111 200//111
f 201//112 203//112 204//112
f 201//112 204//112 202//112
f 203//113 205//113 206//113
f 203//113 206//113 204//113
f 205//114 207//114 208//114
f 205//114 208//114 206//114
f 207//115 209//115 210//115
f 207//115 210//115 208//115
f 209//116 211//116 212//116
f 209//116 212//116 210//116
f 211//117 213//117 214//117
f 211//117 214//117 212//117
f 213//118 215//118 216//118
f 213//118 216//118 214//118
f 215//119 217//119 218//119
f 215//119 218//119 216//119
f 217//120 219//120 220//120
f 217//120 220//120 218//120
f 219//121 221//121 222//121
f 219//121 222//121 220//121
f 221//85 147//85 148//85
f 221//85 148//85 222//85
f 147//122 221//122 219//122
f 147//122 219//122 217//122
f 147//122 217//122 215//122
f 147//122 215//122 213//122
f 147//122 213//122 211//122
f 147//122 211//122 209//122
f 147//122 209//122 207//122
f 147//122 207//122 205//122
f 147//122 205//122 203//122
f 147//122 203//122 201//122
f 147//122 201//122 199//122
f 147//122 199//122 197//122
f 147//122 197//122 195//122
f 147//122 195//122 193//122
f 147//122 193//122 191//122
f 147//122 191//122 189//122
f 147//122 189//122 187//122
f 147//122 187//122 185//122
f 147//122 185//122 183//122
f 147//122 183//122 181//122
f 147//122 181//122 179//122
f 147//122 179//122 177//122
f 147//122 177//122 175//122
f 147//122 175//122 173//122
f 147//122 173//122 171//122
f 147//122 171//122 169//122
f 147//122 169//122 167//122
f 147//122 167//122 165//122
f 147//122 165//122 163//122
f 147//122 163//122 161//122
f 147//122 161//122 159//122
f 147//122 159//122 157//122
f 147//122 157//122 155//122
f 147//122 155//122 153//122
f 147//122 153//122 151//122
f 147//122 151//122 149//122
f 148//123 150//123 152//123
f 148//124 152//124 154//124
f 148//125 154//125 156//125
f 148//126 156//126 158//126
f 148//126 158//126 160//126
f 148//126 160//126 162//126
f 148//126 162//126 164//126
f 148//126 164//126 166//126
f 148//126 166//126 168//126
f 148//126 168//126 170//126
f 148//126 170//126 172//126
f 148//126 172//126 174//126
f 148//126 174//126 176//126
f 148//126 176//126 178//126
f 148//126 178//126 180//126
f 148//126 180//126 182//126
f 148//126 182//126 184//126
f 148//126 184//126 186//126
f 148//126 186//126 188//126
f 148//126 188//126 190//126
f 148//126 190//126 192//126
f 148//126 192//126 194//126
f 148//126 194//126 196//126
f 148//126 196//126 198//126
f 148//126 198//126 200//126
f 148//126 200//126 202//126
f 148//126 202//126 204//126
f 148//126 204//126 206//126
f 148//126 206//126 208//126
f 148//126 208//126 210//126
f 148//126 210//126 212//126
f 148//126 212//126 214//126
f 148//126 214//126 216//126
f 148//125 216//125 218//125
f 148//125 218//125 220//125
f 148//127 220//127 222//127
