# Blender v2.76 (sub 0) OBJ File: ''
# www.blender.org
mtllib fork.mtl
o fork
v 0.065534 0.066516 -1.631137
v -0.065325 0.066516 -1.631137
v -0.059466 0.000992 -2.503450
v -0.078997 0.102732 -3.432745
v -0.128802 0.644893 -4.574552
v -0.172748 0.644893 -4.574552
v -0.198138 0.109848 -3.437780
v -0.222552 0.001686 -2.510261
v -0.228411 0.066516 -1.631137
v -0.335833 0.066516 -1.631137
v -0.356341 0.002387 -2.516582
v -0.370989 0.117087 -3.442810
v -0.400287 0.630334 -4.585029
v -0.445209 0.630334 -4.585029
v -0.508685 0.131532 -3.452870
v -0.538958 0.003812 -2.529712
v -0.560442 0.060262 -1.640237
v -0.543841 0.126026 -1.173654
v -0.198137 0.268732 -0.884736
v -0.162981 0.379033 -0.240518
v -0.193254 0.322130 0.720261
v -0.300675 0.067738 4.343577
v -0.017472 0.065700 4.386009
v 0.283309 0.067738 4.343577
v 0.173933 0.322130 0.720261
v 0.144636 0.379034 -0.240518
v 0.198347 0.268732 -0.884736
v 0.544050 0.126026 -1.173654
v 0.560651 0.060262 -1.640237
v 0.539167 0.003812 -2.529712
v 0.508893 0.131533 -3.452871
v 0.445416 0.630334 -4.585029
v 0.400495 0.630334 -4.585029
v 0.371198 0.117087 -3.442810
v 0.355573 0.002387 -2.516582
v 0.336042 0.066516 -1.631137
v 0.228620 0.066516 -1.631137
v 0.222761 0.001686 -2.510261
v 0.198346 0.109848 -3.437780
v 0.172955 0.644893 -4.574552
v 0.129010 0.644893 -4.574552
v 0.079206 0.102732 -3.432745
v 0.059675 0.000992 -2.503450
v 0.065534 0.191830 -1.625118
v -0.065325 0.191830 -1.625118
v -0.059466 0.086289 -2.399629
v -0.078997 0.179045 -3.396327
v -0.128802 0.700547 -4.572368
v -0.172748 0.700547 -4.572368
v -0.198138 0.185674 -3.401386
v -0.222552 0.086631 -2.405478
v -0.228411 0.191830 -1.625118
v -0.335833 0.191830 -1.625118
v -0.356341 0.086936 -2.411819
v -0.370989 0.192302 -3.406444
v -0.400287 0.686040 -4.581375
v -0.445209 0.686040 -4.581375
v -0.508685 0.205688 -3.416067
v -0.538958 0.087650 -2.423517
v -0.560442 0.185475 -1.632756
v -0.543841 0.309615 -1.165324
v -0.198137 0.534790 -0.871467
v -0.162981 0.645023 -0.227742
v -0.193254 0.588188 0.733529
v -0.300675 0.333758 4.356355
v -0.017472 0.331727 4.399276
v 0.283309 0.333758 4.356355
v 0.173933 0.588188 0.733529
v 0.144636 0.645023 -0.227742
v 0.198347 0.534790 -0.871467
v 0.544050 0.309615 -1.165324
v 0.560651 0.185475 -1.632756
v 0.539167 0.087650 -2.423517
v 0.508893 0.205688 -3.416067
v 0.445416 0.686040 -4.581375
v 0.400495 0.686040 -4.581375
v 0.371198 0.192302 -3.406445
v 0.355573 0.086936 -2.411819
v 0.336042 0.191830 -1.625118
v 0.228620 0.191830 -1.625118
v 0.222761 0.086631 -2.405478
v 0.198346 0.185674 -3.401386
v 0.172955 0.700547 -4.572368
v 0.129010 0.700547 -4.572368
v 0.079206 0.179045 -3.396327
v 0.059675 0.086289 -2.399629
vt 0.601220 0.415659
vt 0.601271 0.415660
vt 0.600073 0.414606
vt 0.599931 0.414589
vt 0.599101 0.414412
vt 0.598906 0.414406
vt 0.598160 0.414566
vt 0.597971 0.414562
vt 0.599616 0.414597
vt 0.600871 0.415652
vt 0.599747 0.414585
vt 0.598586 0.414401
vt 0.598768 0.414404
vt 0.597631 0.414555
vt 0.597820 0.414559
vt 0.600279 0.414625
vt 0.601545 0.415636
vt 0.601597 0.415637
vt 0.600449 0.414657
vt 0.599488 0.414423
vt 0.599263 0.414416
vt 0.598553 0.414561
vt 0.598284 0.414568
vt 0.598032 0.414706
vt 0.600567 0.415616
vt 0.599421 0.414607
vt 0.599272 0.414633
vt 0.598242 0.414397
vt 0.598439 0.414399
vt 0.597257 0.414534
vt 0.597508 0.414552
vt 0.596773 0.414680
vt 0.595560 0.415143
vt 0.591778 0.414724
vt 0.591384 0.414714
vt 0.591102 0.414710
vt 0.595135 0.415134
vt 0.596207 0.415225
vt 0.596562 0.415233
vt 0.596861 0.414985
vt 0.597320 0.414994
vt 0.597814 0.414813
vt 0.597965 0.414816
vt 0.598655 0.414579
vt 0.599708 0.414741
vt 0.600919 0.415766
vt 0.599576 0.414751
vt 0.598473 0.414576
vt 0.597624 0.414809
vt 0.597501 0.414806
vt 0.599381 0.414760
vt 0.600615 0.415730
vt 0.599232 0.414784
vt 0.598127 0.414570
vt 0.597249 0.414788
vt 0.596763 0.415052
vt 0.596847 0.415524
vt 0.596193 0.415765
vt 0.595122 0.415674
vt 0.591088 0.415249
vt 0.591371 0.415253
vt 0.591764 0.415264
vt 0.595546 0.415683
vt 0.596548 0.415772
vt 0.597306 0.415534
vt 0.598022 0.415078
vt 0.598545 0.414815
vt 0.600410 0.414808
vt 0.601593 0.415750
vt 0.601541 0.415749
vt 0.600239 0.414778
vt 0.599149 0.414590
vt 0.598277 0.414822
vt 0.598154 0.414820
vt 0.598988 0.414586
vt 0.600034 0.414761
vt 0.601268 0.415773
vt 0.601217 0.415772
vt 0.599891 0.414745
vt 0.598793 0.414582
vn 0.000000 -0.904800 -0.425900
vn 0.035900 -0.903400 -0.427400
vn 0.054300 -0.991600 -0.117100
vn -0.000300 -0.994100 -0.108800
vn 0.007300 -0.997300 0.073500
vn 0.000000 -0.997200 0.074900
vn -0.035900 -0.903400 -0.427400
vn -0.054300 -0.991600 -0.117100
vn 0.000300 -0.994100 -0.108800
vn -0.007300 -0.997300 0.073500
vn -0.000000 -0.912100 -0.409900
vn 0.066000 -0.911800 -0.405400
vn 0.093200 -0.985800 -0.139400
vn -0.001100 -0.992400 -0.122900
vn 0.012300 -0.997900 0.063000
vn -0.024900 -0.997100 0.071700
vn -0.021900 -0.990100 0.138800
vn -0.066000 -0.911800 -0.405400
vn -0.093200 -0.985800 -0.139400
vn 0.001100 -0.992400 -0.122900
vn -0.012300 -0.997900 0.063000
vn 0.024900 -0.997100 0.071600
vn 0.021900 -0.990100 0.138800
vn -0.003100 -0.997500 -0.069900
vn 0.003300 -0.997600 -0.069600
vn 0.000000 -0.997500 -0.070000
vn 0.000000 -0.998300 -0.059100
vn 0.000000 -0.985700 0.168800
vn -0.209900 -0.952800 0.219400
vn -0.000000 -0.965200 0.261500
vn 0.153600 -0.946500 0.283800
vn 0.000000 -0.991600 0.129000
vn 0.000000 0.048000 -0.998800
vn 0.999900 -0.009000 0.007400
vn 1.000000 -0.000400 0.007600
vn 0.999800 0.009500 -0.020000
vn 0.999600 0.021400 -0.017600
vn 0.999100 0.001700 -0.042800
vn 0.999300 0.016700 -0.034900
vn -0.000000 0.039200 -0.999200
vn -0.999800 0.008700 -0.018200
vn -0.999800 0.000800 -0.021300
vn -0.999300 0.028400 -0.023000
vn -0.999700 0.011200 -0.023400
vn -1.000000 0.000300 -0.006700
vn -0.999900 0.011100 -0.009000
vn 0.999200 0.031500 -0.025400
vn 0.999700 0.001300 -0.026200
vn 0.999900 0.007200 -0.014900
vn 0.999800 0.016100 -0.013000
vn 0.999700 0.001600 -0.024900
vn 0.999700 0.010000 -0.020700
vn 0.000000 0.065400 -0.997900
vn -0.998700 0.022800 -0.045900
vn -0.998600 0.003500 -0.053000
vn -0.999000 0.035300 -0.027900
vn -0.999500 0.014300 -0.028800
vn -0.999700 0.001400 -0.024200
vn -0.998700 0.040800 -0.032200
vn -0.999400 -0.001600 0.035800
vn -0.999300 -0.002200 0.036100
vn -0.631400 -0.038600 0.774500
vn -0.633900 -0.035100 0.772600
vn -0.998500 -0.002600 0.054900
vn -0.998500 -0.002700 0.055000
vn -0.999500 0.001600 -0.031400
vn -0.999500 0.001500 -0.031400
vn -0.999600 0.001400 -0.029500
vn -0.999600 0.001500 -0.029500
vn -0.148300 -0.049300 0.987700
vn -0.150000 -0.047400 0.987500
vn 0.139800 -0.047500 0.989000
vn 0.141400 -0.049300 0.988700
vn 0.999500 0.001500 -0.030100
vn 0.999500 0.001400 -0.030100
vn 0.999500 0.001500 -0.030400
vn 0.996500 -0.004200 0.083800
vn 0.996500 -0.004000 0.083800
vn 0.632300 -0.035100 0.773900
vn 0.632500 -0.038600 0.773600
vn 0.999400 -0.002100 0.035900
vn 0.999400 -0.001600 0.035900
vn 0.999100 0.033200 -0.026200
vn 0.999600 0.001600 -0.027400
vn 0.999400 0.015200 -0.030700
vn 0.999100 0.033500 -0.026500
vn 0.998500 0.003600 -0.054400
vn 0.998700 0.022400 -0.045200
vn -0.999700 0.010200 -0.021100
vn -0.999700 0.001600 -0.024300
vn -0.999700 0.018100 -0.014600
vn -0.999900 0.007200 -0.014900
vn -0.999800 0.001100 -0.022100
vn -0.998900 0.036800 -0.029700
vn 0.999900 0.009000 -0.007300
vn 1.000000 0.000400 -0.007600
vn 0.999600 0.012000 -0.024900
vn 0.999400 0.026900 -0.021800
vn 0.999800 0.000900 -0.021900
vn 0.999800 0.008600 -0.017900
vn -0.999200 0.017000 -0.035500
vn -0.999100 0.001600 -0.041600
vn -0.999600 0.022600 -0.018500
vn -0.999800 0.009000 -0.018800
vn -1.000000 -0.000300 0.006700
vn -0.999900 -0.011000 0.009100
vn -0.000000 0.915400 0.402500
vn -0.033700 0.914200 0.403900
vn -0.051000 0.993700 0.100100
vn 0.001200 0.995700 0.092700
vn -0.006900 0.991000 -0.133500
vn -0.000000 0.990800 -0.135000
vn 0.033700 0.914200 0.403900
vn 0.051000 0.993700 0.100100
vn -0.001200 0.995700 0.092700
vn 0.006900 0.991000 -0.133500
vn 0.000000 0.921900 0.387400
vn -0.062800 0.921500 0.383300
vn -0.087700 0.988900 0.120300
vn 0.002800 0.994400 0.105400
vn -0.011700 0.992400 -0.122500
vn 0.023600 0.991000 -0.131600
vn 0.018600 0.966500 -0.256000
vn 0.062800 0.921500 0.383300
vn 0.087700 0.988900 0.120300
vn -0.002900 0.994400 0.105400
vn 0.011700 0.992400 -0.122500
vn -0.023600 0.991000 -0.131500
vn -0.018600 0.966500 -0.256000
vn 0.003200 0.997500 0.070000
vn -0.003400 0.997600 0.069600
vn -0.000000 0.997500 0.070100
vn 0.000000 0.998300 0.059000
vn -0.000000 0.985700 -0.168800
vn 0.279400 0.892200 -0.354900
vn -0.000000 0.910200 -0.414200
vn -0.201900 0.877500 -0.434900
vn 0.000000 0.968700 -0.248200
usemtl 11_-_Default
s off
f 41/1/1 40/2/1 39/3/1
f 42/4/2 41/1/2 39/3/2
f 42/4/3 39/3/3 38/5/3
f 43/6/4 42/4/4 38/5/4
f 43/6/5 38/5/5 37/7/5
f 1/8/6 43/6/6 37/7/6
f 7/9/1 6/10/1 5/10/1
f 7/9/7 5/10/7 4/11/7
f 8/12/8 7/9/8 4/11/8
f 8/12/9 4/11/9 3/13/9
f 9/14/10 8/12/10 3/13/10
f 9/14/6 3/13/6 2/15/6
f 34/16/11 33/17/11 32/18/11
f 34/16/12 32/18/12 31/19/12
f 34/16/13 31/19/13 30/20/13
f 35/21/14 34/16/14 30/20/14
f 35/21/15 30/20/15 29/22/15
f 36/23/16 35/21/16 29/22/16
f 36/23/17 29/22/17 28/24/17
f 14/25/11 13/25/11 12/26/11
f 15/27/18 14/25/18 12/26/18
f 16/28/19 15/27/19 12/26/19
f 16/28/20 12/26/20 11/29/20
f 17/30/21 16/28/21 11/29/21
f 17/30/22 11/29/22 10/31/22
f 18/32/23 17/30/23 10/31/23
f 25/33/24 24/34/24 23/35/24
f 25/33/25 23/35/25 22/36/25
f 25/33/26 22/36/26 21/37/26
f 25/33/27 21/37/27 20/38/27
f 26/39/27 25/33/27 20/38/27
f 26/39/28 20/38/28 19/40/28
f 27/41/28 26/39/28 19/40/28
f 36/23/29 28/24/29 27/41/29
f 37/7/30 36/23/30 27/41/30
f 1/8/30 37/7/30 27/41/30
f 1/8/30 27/41/30 19/40/30
f 2/15/30 1/8/30 19/40/30
f 2/15/31 19/40/31 18/32/31
f 9/14/32 2/15/32 18/32/32
f 9/14/32 18/32/32 10/31/32
f 1/8/33 2/15/33 45/42/33
f 1/8/33 45/42/33 44/43/33
f 2/15/34 3/13/34 46/44/34
f 2/15/35 46/44/35 45/42/35
f 3/13/36 4/11/36 47/45/36
f 3/13/37 47/45/37 46/44/37
f 4/11/38 5/10/38 48/46/38
f 4/11/39 48/46/39 47/45/39
f 5/10/40 6/10/40 49/46/40
f 5/10/40 49/46/40 48/46/40
f 6/10/41 7/9/41 50/47/41
f 6/10/42 50/47/42 49/46/42
f 7/9/43 8/12/43 51/48/43
f 7/9/44 51/48/44 50/47/44
f 8/12/45 9/14/45 52/49/45
f 8/12/46 52/49/46 51/48/46
f 9/14/33 10/31/33 53/50/33
f 9/14/33 53/50/33 52/49/33
f 10/31/47 11/29/47 54/23/47
f 10/31/48 54/23/48 53/50/48
f 11/29/49 12/26/49 55/51/49
f 11/29/50 55/51/50 54/23/50
f 12/26/51 13/25/51 56/52/51
f 12/26/52 56/52/52 55/51/52
f 13/25/53 14/25/53 57/52/53
f 13/25/53 57/52/53 56/52/53
f 14/25/54 15/27/54 58/53/54
f 14/25/55 58/53/55 57/52/55
f 15/27/56 16/28/56 59/54/56
f 15/27/57 59/54/57 58/53/57
f 16/28/58 17/30/58 60/55/58
f 16/28/59 60/55/59 59/54/59
f 17/30/60 18/32/60 61/56/60
f 17/30/61 61/56/61 60/55/61
f 18/32/62 19/40/62 62/57/62
f 18/32/63 62/57/63 61/56/63
f 19/40/64 20/38/64 63/58/64
f 19/40/65 63/58/65 62/57/65
f 20/38/66 21/37/66 64/59/66
f 20/38/67 64/59/67 63/58/67
f 21/37/68 22/36/68 65/60/68
f 21/37/69 65/60/69 64/59/69
f 22/36/70 23/35/70 66/61/70
f 22/36/71 66/61/71 65/60/71
f 23/35/72 24/34/72 67/62/72
f 23/35/73 67/62/73 66/61/73
f 24/34/74 25/33/74 68/63/74
f 24/34/75 68/63/75 67/62/75
f 25/33/76 26/39/76 69/64/76
f 25/33/76 69/64/76 68/63/76
f 26/39/77 27/41/77 70/65/77
f 26/39/78 70/65/78 69/64/78
f 27/41/79 28/24/79 71/66/79
f 27/41/80 71/66/80 70/65/80
f 28/24/81 29/22/81 72/67/81
f 28/24/82 72/67/82 71/66/82
f 29/22/83 30/20/83 73/26/83
f 29/22/84 73/26/84 72/67/84
f 30/20/85 31/19/85 74/68/85
f 30/20/86 74/68/86 73/26/86
f 31/19/87 32/18/87 75/69/87
f 31/19/88 75/69/88 74/68/88
f 32/18/53 33/17/53 76/70/53
f 32/18/53 76/70/53 75/69/53
f 33/17/89 34/16/89 77/71/89
f 33/17/90 77/71/90 76/70/90
f 34/16/91 35/21/91 78/72/91
f 34/16/92 78/72/92 77/71/92
f 35/21/93 36/23/93 79/73/93
f 35/21/94 79/73/94 78/72/94
f 36/23/33 37/7/33 80/74/33
f 36/23/33 80/74/33 79/73/33
f 37/7/95 38/5/95 81/75/95
f 37/7/96 81/75/96 80/74/96
f 38/5/97 39/3/97 82/76/97
f 38/5/98 82/76/98 81/75/98
f 39/3/99 40/2/99 83/77/99
f 39/3/100 83/77/100 82/76/100
f 40/2/40 41/1/40 84/78/40
f 40/2/40 84/78/40 83/77/40
f 41/1/101 42/4/101 85/79/101
f 41/1/102 85/79/102 84/78/102
f 42/4/103 43/6/103 86/80/103
f 42/4/104 86/80/104 85/79/104
f 43/6/105 1/8/105 44/43/105
f 43/6/106 44/43/106 86/80/106
f 82/76/107 83/77/107 84/78/107
f 82/76/108 84/78/108 85/79/108
f 81/75/109 82/76/109 85/79/109
f 81/75/110 85/79/110 86/80/110
f 80/74/111 81/75/111 86/80/111
f 80/74/112 86/80/112 44/43/112
f 48/46/107 49/46/107 50/47/107
f 47/45/113 48/46/113 50/47/113
f 47/45/114 50/47/114 51/48/114
f 46/44/115 47/45/115 51/48/115
f 46/44/116 51/48/116 52/49/116
f 45/42/112 46/44/112 52/49/112
f 75/69/117 76/70/117 77/71/117
f 74/68/118 75/69/118 77/71/118
f 73/26/119 74/68/119 77/71/119
f 73/26/120 77/71/120 78/72/120
f 72/67/121 73/26/121 78/72/121
f 72/67/122 78/72/122 79/73/122
f 71/66/123 72/67/123 79/73/123
f 55/51/117 56/52/117 57/52/117
f 55/51/124 57/52/124 58/53/124
f 55/51/125 58/53/125 59/54/125
f 54/23/126 55/51/126 59/54/126
f 54/23/127 59/54/127 60/55/127
f 53/50/128 54/23/128 60/55/128
f 53/50/129 60/55/129 61/56/129
f 66/61/130 67/62/130 68/63/130
f 65/60/131 66/61/131 68/63/131
f 64/59/132 65/60/132 68/63/132
f 63/58/133 64/59/133 68/63/133
f 63/58/133 68/63/133 69/64/133
f 62/57/134 63/58/134 69/64/134
f 62/57/134 69/64/134 70/65/134
f 70/65/135 71/66/135 79/73/135
f 70/65/136 79/73/136 80/74/136
f 70/65/136 80/74/136 44/43/136
f 62/57/136 70/65/136 44/43/136
f 62/57/136 44/43/136 45/42/136
f 61/56/137 62/57/137 45/42/137
f 61/56/138 45/42/138 52/49/138
f 53/50/138 61/56/138 52/49/138
