# Blender v2.77 (sub 0) OBJ File: ''
# www.blender.org
mtllib cone2.mtl
o Cone
v -1.315789 -2.192981 -1.000001
v -1.315789 -0.192981 -0.250001
v -1.120698 -2.192981 -0.980786
v -1.267016 -0.192981 -0.245197
v -0.933105 -2.192981 -0.923880
v -1.220118 -0.192981 -0.230971
v -0.760218 -2.192981 -0.831471
v -1.176896 -0.192981 -0.207868
v -0.608682 -2.192981 -0.707108
v -1.139012 -0.192981 -0.176778
v -0.484319 -2.192981 -0.555571
v -1.107921 -0.192981 -0.138894
v -0.391909 -2.192981 -0.382684
v -1.084819 -0.192981 -0.095672
v -0.335003 -2.192981 -0.195091
v -1.070592 -0.192981 -0.048774
v -0.315789 -2.192981 -0.000001
v -1.065789 -0.192981 -0.000001
v -0.335003 -2.192981 0.195089
v -1.070592 -0.192981 0.048772
v -0.391909 -2.192981 0.382682
v -1.084819 -0.192981 0.095670
v -0.484319 -2.192981 0.555569
v -1.107921 -0.192981 0.138892
v -0.608682 -2.192981 0.707106
v -1.139012 -0.192981 0.176776
v -0.760218 -2.192981 0.831469
v -1.176896 -0.192981 0.207866
v -0.933105 -2.192981 0.923879
v -1.220118 -0.192981 0.230969
v -1.120698 -2.192981 0.980784
v -1.267016 -0.192981 0.245195
v -1.315789 -2.192981 0.999999
v -1.315789 -0.192981 0.249999
v -1.510879 -2.192981 0.980784
v -1.364561 -0.192981 0.245195
v -1.698472 -2.192981 0.923878
v -1.411459 -0.192981 0.230969
v -1.871359 -2.192981 0.831468
v -1.454681 -0.192981 0.207866
v -2.022896 -2.192981 0.707105
v -1.492565 -0.192981 0.176776
v -2.147259 -2.192981 0.555569
v -1.523656 -0.192981 0.138891
v -2.239668 -2.192981 0.382682
v -1.546759 -0.192981 0.095670
v -2.296574 -2.192981 0.195089
v -1.560985 -0.192981 0.048771
v -2.315789 -2.192981 -0.000002
v -1.565789 -0.192981 -0.000001
v -2.296574 -2.192981 -0.195092
v -1.560985 -0.192981 -0.048774
v -2.239668 -2.192981 -0.382685
v -1.546758 -0.192981 -0.095672
v -2.147257 -2.192981 -0.555572
v -1.523656 -0.192981 -0.138894
v -2.022894 -2.192981 -0.707109
v -1.492565 -0.192981 -0.176778
v -1.871358 -2.192981 -0.831471
v -1.454681 -0.192981 -0.207869
v -1.698471 -2.192981 -0.923881
v -1.411459 -0.192981 -0.230971
v -1.510877 -2.192981 -0.980787
v -1.364561 -0.192981 -0.245197
vn 0.0918 0.3496 -0.9324
vn 0.2720 0.3496 -0.8965
vn 0.4416 0.3496 -0.8263
vn 0.5944 0.3496 -0.7242
vn 0.7242 0.3496 -0.5944
vn 0.8263 0.3496 -0.4416
vn 0.8965 0.3496 -0.2720
vn 0.9324 0.3496 -0.0918
vn 0.9324 0.3496 0.0918
vn 0.8965 0.3496 0.2720
vn 0.8263 0.3496 0.4416
vn 0.7242 0.3496 0.5944
vn 0.5944 0.3496 0.7242
vn 0.4416 0.3496 0.8263
vn 0.2720 0.3496 0.8965
vn 0.0918 0.3496 0.9324
vn -0.0918 0.3496 0.9324
vn -0.2720 0.3496 0.8965
vn -0.4416 0.3496 0.8263
vn -0.5944 0.3496 0.7242
vn -0.7242 0.3496 0.5944
vn -0.8263 0.3496 0.4416
vn -0.8965 0.3496 0.2720
vn -0.9324 0.3496 0.0918
vn -0.9324 0.3496 -0.0918
vn -0.8965 0.3496 -0.2720
vn -0.8263 0.3496 -0.4416
vn -0.7242 0.3496 -0.5944
vn -0.5944 0.3496 -0.7242
vn -0.4416 0.3496 -0.8263
vn 0.0000 1.0000 0.0000
vn -0.2720 0.3496 -0.8965
vn -0.0918 0.3496 -0.9324
vn 0.0000 -1.0000 0.0000
usemtl None
s off
f 1//1 2//1 4//1 3//1
f 3//2 4//2 6//2 5//2
f 5//3 6//3 8//3 7//3
f 7//4 8//4 10//4 9//4
f 9//5 10//5 12//5 11//5
f 11//6 12//6 14//6 13//6
f 13//7 14//7 16//7 15//7
f 15//8 16//8 18//8 17//8
f 17//9 18//9 20//9 19//9
f 19//10 20//10 22//10 21//10
f 21//11 22//11 24//11 23//11
f 23//12 24//12 26//12 25//12
f 25//13 26//13 28//13 27//13
f 27//14 28//14 30//14 29//14
f 29//15 30//15 32//15 31//15
f 31//16 32//16 34//16 33//16
f 33//17 34//17 36//17 35//17
f 35//18 36//18 38//18 37//18
f 37//19 38//19 40//19 39//19
f 39//20 40//20 42//20 41//20
f 41//21 42//21 44//21 43//21
f 43//22 44//22 46//22 45//22
f 45//23 46//23 48//23 47//23
f 47//24 48//24 50//24 49//24
f 49//25 50//25 52//25 51//25
f 51//26 52//26 54//26 53//26
f 53//27 54//27 56//27 55//27
f 55//28 56//28 58//28 57//28
f 57//29 58//29 60//29 59//29
f 59//30 60//30 62//30 61//30
f 4//31 2//31 64//31 62//31 60//31 58//31 56//31 54//31 52//31 50//31 48//31 46//31 44//31 42//31 40//31 38//31 36//31 34//31 32//31 30//31 28//31 26//31 24//31 22//31 20//31 18//31 16//31 14//31 12//31 10//31 8//31 6//31
f 61//32 62//32 64//32 63//32
f 63//33 64//33 2//33 1//33
f 1//34 3//34 5//34 7//34 9//34 11//34 13//34 15//34 17//34 19//34 21//34 23//34 25//34 27//34 29//34 31//34 33//34 35//34 37//34 39//34 41//34 43//34 45//34 47//34 49//34 51//34 53//34 55//34 57//34 59//34 61//34 63//34
